<?xml version="1.0" encoding="utf-8"?>
<!-- Generator: Adobe Illustrator 16.0.3, SVG Export Plug-In . SVG Version: 6.00 Build 0)  -->
<!DOCTYPE svg PUBLIC "-//W3C//DTD SVG 1.1//EN" "http://www.w3.org/Graphics/SVG/1.1/DTD/svg11.dtd">
<svg version="1.1" id="Layer_1" xmlns="http://www.w3.org/2000/svg" xmlns:xlink="http://www.w3.org/1999/xlink" x="0px" y="0px"
	 width="457px" height="525px" viewBox="0 0 457 525" enable-background="new 0 0 457 525" xml:space="preserve">
<g>
	<g>
		<path fill="#231F20" d="M209.883,229.154c-0.626,1.922-1.216,4.197-0.496,6.197c0.626,1.738,4.066,1.584,5.489,1.876
			c3.145,0.644,5.757,4.651,8.37,6.425c3.486,2.365,6.852,0.902,9.502-1.868c0.906-0.947,1.369-1.742,2.561-2.372
			c1.563-0.824,2.98-0.633,4.205-2.09c1.451-1.723-0.113-5.983-0.648-7.363c0.139,0.359-0.143,0.885,0,1.25
			c0.607,1.563,1.068,2.869,1.111,4.586c0-0.408,0.002-0.818,0.002-1.227c-0.611,3.383-3.953,2.658-6.086,4.557
			c-3.563,3.171-5.654,5.947-10.646,3.277c-3.34-1.787-5.247-5.785-9.074-6.568c-2.299-0.471-4.791-0.224-5.088-3.135
			c0,0.416,0,0.833,0,1.25c0.106-1.265,0.405-2.336,0.799-3.545C210.007,230.024,209.762,229.527,209.883,229.154L209.883,229.154z"
			/>
	</g>
</g>
<g>
	<g>
		<path fill="#231F20" d="M233.365,238.76c-2.07-17.09-3.059-33.69-2.201-50.932c0.039-0.752-0.035-1.823-0.006-2.411
			c-0.941,18.901-0.07,37.042,2.207,55.843C233.266,240.441,233.465,239.584,233.365,238.76L233.365,238.76z"/>
	</g>
</g>
<g>
	<g>
		<path fill="#231F20" d="M243.697,259.457c-15.379-0.026-30.664-0.901-46-1.912c0.019,0.001-0.036,1.248,0,1.25
			c15.336,1.011,30.621,1.886,46,1.912C243.707,260.707,243.707,259.457,243.697,259.457L243.697,259.457z"/>
	</g>
</g>
<g>
	<g>
		<path fill="#231F20" d="M243.697,259.457c-4.184,0.164-5.621-3.504-9.291-4.582c-3.447-1.013-6.98,0.272-10.43-0.5
			c-4.219-0.945-7.264-1.224-11.515-0.082c-4.937,1.326-9.642,2.751-14.765,3.252c-0.049,0.005,0.031,1.247,0,1.25
			c8.162-0.798,16.92-5.886,25.084-3.527c3.396,0.981,6.525,0.283,9.99,0.614c4.488,0.428,6.346,5.005,10.926,4.825
			C243.723,260.706,243.691,259.457,243.697,259.457L243.697,259.457z"/>
	</g>
</g>
<g>
	<g>
		<path fill="#231F20" d="M243.697,259.457c-3.281,0.403-5.605,1.971-8.242,3.832c-3.42,2.414-7.123,3.259-11.269,3.375
			c-4.571,0.127-8.37-1.886-12.235-4.074c-4.447-2.519-8.801-4.503-13.92-5.154c0.043,0.006-0.061,1.242,0,1.25
			c9.512,1.211,16.588,9.005,26.155,9.229c4.128,0.096,7.878-1.087,11.269-3.375c2.693-1.817,4.922-3.424,8.242-3.832
			C243.758,260.699,243.656,259.462,243.697,259.457L243.697,259.457z"/>
	</g>
</g>
<g>
	<g>
		<path fill="#231F20" d="M209.084,185.998c-4.699-3.416-9.543-6.862-15.381-7.868c-6.226-1.073-12.268,2.703-17.172,6
			c-0.199,0.134,0.188,1.125,0,1.25c4.878-3.279,9.963-6.224,16.004-6.112c6.139,0.114,11.834,4.552,16.549,7.98
			C208.892,187.108,209.287,186.146,209.084,185.998L209.084,185.998z"/>
	</g>
</g>
<g>
	<g>
		<path fill="#231F20" d="M206.365,188.258c-7.939-10.397-18.797-11.169-28.334-2.261c-0.213,0.199,0.203,1.061,0,1.25
			c9.537-8.908,20.395-8.136,28.334,2.261C206.168,189.25,206.57,188.526,206.365,188.258L206.365,188.258z"/>
	</g>
</g>
<g>
	<g>
		<path fill="#231F20" d="M206.033,187.405c-9.574,1.338-18.146,3.188-26.668-2.648c0.188,0.128-0.201,1.113,0,1.25
			c8.521,5.837,17.094,3.986,26.668,2.648C206.1,188.646,205.984,187.412,206.033,187.405L206.033,187.405z"/>
	</g>
</g>
<g>
	<g>
		<path fill="#231F20" d="M198.031,181.485c-0.869,3.047-3.203,5.206-6.299,5.868c-3.832,0.82-6.863-2.062-8.576-5.13
			c0.176,0.313-0.18,0.928,0,1.25c1.832,3.283,4.641,5.658,8.576,5.13c3.08-0.413,5.479-2.997,6.299-5.868
			C198.143,182.347,197.922,181.867,198.031,181.485L198.031,181.485z"/>
	</g>
</g>
<g>
	<g>
		<path fill="#231F20" d="M195.365,180.625c-0.768,1.745-1.826,3.516-3.834,3.908c-1.898,0.372-3.672-1.284-4.832-2.539
			c0.203,0.22-0.213,1.021,0,1.25c1.28,1.386,2.832,2.706,4.832,2.539c1.971-0.164,3.14-2.331,3.834-3.908
			C195.52,181.523,195.213,180.971,195.365,180.625L195.365,180.625z"/>
	</g>
</g>
<g>
	<g>
		<path fill="#231F20" d="M270.365,189.041c-4.029-9.02-18.617-11.344-26-5.333c-0.209,0.17,0.199,1.089,0,1.25
			c7.383-6.011,21.971-3.687,26,5.333C270.213,189.947,270.521,189.391,270.365,189.041L270.365,189.041z"/>
	</g>
</g>
<g>
	<g>
		<path fill="#231F20" d="M268.699,188.37c-4.506-3.152-9.264-5.788-14.914-5.485c-4.834,0.258-8.744,3.911-11.754,7.325
			c-0.211,0.239,0.203,1.021,0,1.25c3.236-3.669,6.791-6.601,11.754-7.325c5.391-0.787,10.73,2.559,14.914,5.485
			C268.51,189.487,268.9,188.511,268.699,188.37L268.699,188.37z"/>
	</g>
</g>
<g>
	<g>
		<path fill="#231F20" d="M268.699,188.37c-8.525,3.837-17.135,3.515-26,1.072c0.098,0.027-0.115,1.218,0,1.25
			c8.865,2.443,17.475,2.765,26-1.072C268.863,189.546,268.551,188.436,268.699,188.37L268.699,188.37z"/>
	</g>
</g>
<g>
	<g>
		<path fill="#231F20" d="M262.031,184.756c-1.084,2.729-3.072,5.123-6.055,5.746c-3.74,0.78-6.08-2.996-7.184-5.938
			c0.137,0.362-0.137,0.882,0,1.25c1.141,3.042,3.115,6.123,6.734,5.993c3.152-0.113,5.451-3.148,6.504-5.801
			C262.176,185.644,261.891,185.113,262.031,184.756L262.031,184.756z"/>
	</g>
</g>
<g>
	<g>
		<path fill="#231F20" d="M260.521,183.831c-1.133,1.585-2.492,3.414-4.572,3.653c-2.15,0.247-3.957-2.189-5.066-3.653
			c0.197,0.26-0.203,0.981,0,1.25c1.248,1.647,2.807,3.636,5.066,3.653c1.998,0.015,3.561-2.236,4.572-3.653
			C260.723,184.8,260.328,184.102,260.521,183.831L260.521,183.831z"/>
	</g>
</g>
<g>
	<g>
		<path fill="#231F20" d="M277.572,184.02c1.088,16.055,0.58,31.56-2.889,47.296c-2.287,10.373-5.344,22.085-11.605,30.869
			c-5.264,7.383-12.568,13.228-18.543,20.01c-3.268,3.71-6.096,7.771-9.564,11.307c-3.641,3.71-8.406,6.063-13.267,7.729
			c-9.843,3.376-19.215-0.137-26.949-6.376c-8.183-6.602-15.533-15.201-22.509-23.019c-7.537-8.447-14.832-18.296-16.365-29.805
			c-2.317-17.393-2.086-35.981,0.15-53.323c0.054-0.411-0.053-0.842,0-1.25c-1.314,10.196-1.382,20.423-1.328,30.687
			c0.051,9.84-0.337,20.439,2.125,30.03c3.338,12.997,14.105,23.938,23.203,33.198c7.104,7.229,13.57,15.444,22.838,20.018
			c10.051,4.96,22.139,1.661,30.479-5.15c4.15-3.389,7.316-8.087,10.684-12.201c3.119-3.811,6.783-7.212,10.213-10.736
			c3.275-3.365,6.615-6.758,9.348-10.59c3.209-4.501,5.133-10.115,6.932-15.284c4.648-13.355,7.363-27.755,7.785-41.888
			c0.227-7.579-0.221-15.17-0.732-22.728C277.596,183.108,277.547,183.645,277.572,184.02L277.572,184.02z"/>
	</g>
</g>
<g>
	<g>
		<path fill="#231F20" d="M154.744,229.154c-6.976-3.199-14.373-7.158-16-15.334c0.08,0.399-0.08,0.848,0,1.25
			c1.627,8.176,9.024,12.135,16,15.334C154.595,230.335,154.91,229.229,154.744,229.154L154.744,229.154z"/>
	</g>
</g>
<g>
	<g>
		<path fill="#231F20" d="M153.365,241.457c-0.818,2.328-2.145,4.61-4.653,5.334c-1.872,0.54-3.891-0.229-5.386-1.344
			c-0.643-0.48-1.188-1.085-1.627-1.754c-0.193-0.295-0.336-0.617-0.457-0.947c-0.352-0.958-0.236,0.257-0.051-0.359
			c0.612-2.038,3.947-1.806,5.508-1.678c-0.001-0.408-0.002-0.818-0.002-1.227c-0.143,2.316-1.652,1.943-3.332,2.643
			c-0.156,0.065,0.139,1.192,0,1.25c1.701-0.707,3.195-0.407,3.335-2.688c0.007-0.116,0.024-1.227-0.001-1.229
			c-1.803-0.148-5.314-0.309-5.613,2.187c-0.158,1.332,0.086,2.573,0.87,3.672c1.224,1.714,3.357,2.823,5.448,2.884
			c3.178,0.093,5.033-2.851,5.961-5.494C153.496,242.334,153.236,241.825,153.365,241.457L153.365,241.457z"/>
	</g>
</g>
<g>
	<g>
		<path fill="#231F20" d="M146.699,229.375c0.014,0.182,0.027,0.361,0.042,0.543c-0.001-0.356-0.003-0.712-0.005-1.067
			c-0.055,6.635-9.836,16.816-16.279,10.876c-1.672-1.543-2.082-4.145-0.654-5.954c1.735-2.202,4.059,0.874,4.896,2.271
			c-0.182-0.303,0.186-0.939,0-1.25c-1.583-2.637-4.747-4.547-5.75-0.418c-0.507,2.082-0.086,4.662,1.24,6.313
			c3.675,4.577,10.084,0.563,13.01-2.646c2.529-2.776,3.79-6.211,3.5-9.917C146.73,228.539,146.666,228.961,146.699,229.375
			L146.699,229.375z"/>
	</g>
</g>
<g>
	<g>
		<path fill="#231F20" d="M142.031,223.459c-2.227,2.143-5.056,3.469-7.332,0.666c0.199,0.246-0.208,0.995,0,1.25
			c2.276,2.803,5.105,1.477,7.332-0.666C142.244,224.504,141.828,223.654,142.031,223.459L142.031,223.459z"/>
	</g>
</g>
<g>
	<g>
		<path fill="#231F20" d="M140.031,217.459c-3.854,6.479-10.584,7.996-16.857,3.848c-5.139-3.396-8.386-10.352-2.475-14.598
			c0.203-0.146-0.191-1.112,0-1.25c-12.295,8.832,9.69,29.455,19.332,13.25C140.217,218.398,139.852,217.763,140.031,217.459
			L140.031,217.459z"/>
	</g>
</g>
<g>
	<g>
		<path fill="#231F20" d="M152.031,208.043c0.229,0.661,0.342,1.344,0.34,2.049c0-0.408,0.001-0.818,0.002-1.227
			c-0.52,5.538-8.172,5.811-12.342,5.559c-6.039-0.363-10.898-2.615-12.674-8.676c-2.127-7.259,13.342-10.013,14.236-4.842
			c-0.002-0.388-0.002-0.776-0.004-1.165c-0.025,1.901-2.846,3.058-4.225,3.718c-0.17,0.081,0.154,1.176,0,1.25
			c2.605-1.246,6.943-5.1,2.172-6.912c-4.369-1.66-12.398,0.056-12.455,5.78c-0.08,7.966,5.588,11.411,12.949,12.097
			c6.061,0.564,14.049-1.52,12-8.881C152.139,207.177,151.924,207.653,152.031,208.043L152.031,208.043z"/>
	</g>
</g>
<g>
	<g>
		<path fill="#231F20" d="M156.031,187.459c-4.047,8.115-12.392,10.015-19.812,4.967c-3.331-2.266-5.657-5.796-6.748-9.632
			c-1.588-5.586,1.55-10.948,5.272-14.828c3.174-3.308,8.156-5.044,12.559-3.506c4.774,1.667,6.599,8.519,4.941,12.822
			c-1.709,4.442-10.398,3.869-10.813-1.1c0.001,0.409,0.001,0.818,0.002,1.228c0.131-1.81,1.782-2.701,3.267-3.368
			c0.163-0.074-0.148-1.184,0-1.25c-6.652,2.991-1.766,9.754,4.127,8.641c3.378-0.638,4.111-4.361,4.104-7.251
			c-0.016-5.754-2.545-11.306-8.919-11.595c-10.845-0.492-16.913,13.105-14.317,22.238c1.586,5.581,6.566,9.939,12.055,11.431
			c6.305,1.713,11.562-2.088,14.283-7.546C156.2,188.372,155.867,187.789,156.031,187.459L156.031,187.459z"/>
	</g>
</g>
<g>
	<g>
		<path fill="#231F20" d="M138.699,190.125c-0.897,11.655-14.531,9.583-20.815,3.556c-4.853-4.654-5.069-11.35-1.636-16.875
			c1.77-2.845,4.397-5.352,7.75-6.006c3.324-0.648,6.949,2.876,7.127,5.99c0-0.409,0-0.818,0.001-1.228
			c-0.59,4.758-5.772,8.346-10.427,7.23c0.085,0.021-0.104,1.225,0,1.25c5.04,1.208,11.813-3.761,10.378-9.339
			c-1.501-5.84-7.859-6.01-11.796-2.745c-3.263,2.707-5.598,7.173-5.64,11.419c-0.063,6.328,2.74,11.411,8.315,14.585
			c6.756,3.847,16.061,2.257,16.742-6.588C138.73,190.961,138.667,190.539,138.699,190.125L138.699,190.125z"/>
	</g>
</g>
<g>
	<g>
		<path fill="#231F20" d="M131.365,174.792c-5.168,9.264-19.556,7.214-22.666-2.667c0.118,0.376-0.121,0.868,0,1.25
			c3.11,9.881,17.498,11.931,22.666,2.667C131.544,175.721,131.189,175.106,131.365,174.792L131.365,174.792z"/>
	</g>
</g>
<g>
	<g>
		<path fill="#231F20" d="M154.699,163.375c2.288-12.461-1.92-31.588-18.557-25.467c-4.494,1.653-6.922,5.501-5.709,10.041
			c2.373,8.893,14.248,7.853,18.932,2.093c0.066-0.083,0.071-1.186,0-1.25c-2.738-2.441-5.141-3.14-8.666-2
			c-0.131,0.042,0.113,1.213,0,1.25c3.525-1.14,5.928-0.441,8.666,2c0-0.417,0-0.833,0-1.25c-2.978,3.661-6.879,5.39-11.557,4.321
			c-3.895-0.89-7.527-4.317-7.684-8.429c-0.001,0.409-0.002,0.818-0.002,1.228c0.634-7.682,12.43-9.688,18.01-6.59
			c7.21,4.002,7.833,15.904,6.566,22.804C154.625,162.53,154.772,162.974,154.699,163.375L154.699,163.375z"/>
	</g>
</g>
<g>
	<g>
		<path fill="#231F20" d="M143.365,154.125c-1.714,7.754-9.749,9.79-16.744,9.144c-5.994-0.554-16.692-4.751-14.887-12.546
			c2.109-9.105,15.938-13.026,23.199-7.909c7.445,5.246-9.74,18.407-12.902,7.312c0.109,0.383-0.109,0.862,0,1.25
			c1.707,5.991,8.312,4.477,12.067,1.332c2.287-1.915,2.786-4.425,2.739-7.18c-0.106-6.252-8.482-6.249-12.829-5.713
			c-5.841,0.719-10.48,3.922-12.274,9.659c-4.94,15.8,28.104,21.859,31.631,5.903C143.453,154.977,143.277,154.521,143.365,154.125
			L143.365,154.125z"/>
	</g>
</g>
<g>
	<g>
		<path fill="#231F20" d="M128.031,144.792c-7.804,7.331-28.667,7.956-25.332-7.417c1.184-5.457,5.038-12.623,11.538-11.931
			c3.715,0.395,7.2,4.001,7.507,7.685c0-0.409-0.001-0.819-0.002-1.228c-0.063,2.639-1.997,3.767-4.377,4.224
			c-0.087,0.017,0.067,1.237,0,1.25c4.021-0.772,5.203-4.031,3.906-7.569c-1.003-2.735-3.688-4.726-6.402-5.489
			c-4.244-1.191-7.608,2.146-9.617,5.436c-2.965,4.855-4.734,12.603-1.02,17.592c5.43,7.291,18.306,3.857,23.799-1.303
			C128.244,145.843,127.829,144.983,128.031,144.792L128.031,144.792z"/>
	</g>
</g>
<g>
	<g>
		<path fill="#231F20" d="M111.365,118.792c-11.998,11.498,20.498,27.19,26.741,11.788c4.03-9.945-6.741-22.036-16.282-13.69
			c-7.477,6.541,7.167,17.811,11.541,8.485c0.161-0.345-0.158-0.912,0-1.25c-2.947,6.282-13.162,3.123-13.468-3.346
			c-0.001,0.409-0.001,0.818-0.001,1.228c0.486-4.036,4.561-6.488,8.316-6.807c4.714-0.399,8.965,3.55,10.297,7.745
			c2.127,6.702-3.313,11.838-9.346,12.515c-6.644,0.746-27.092-6.511-17.799-15.417
			C111.578,119.838,111.162,118.987,111.365,118.792L111.365,118.792z"/>
	</g>
</g>
<g>
	<g>
		<path fill="#231F20" d="M142.699,98.125c-6.744-9.452-31.414-5.354-30.646,7.902c0.559,9.657,17.359,9.401,21.707,2.696
			c0.771-1.188,0.801-2.75,0.751-4.132c-0.218-5.982-6.36-7.653-11.146-5.799c-0.148,0.058,0.131,1.199,0,1.25
			c4.947-1.917,10.685-0.136,11.145,5.777c0-0.417,0-0.833,0-1.25c-0.654,7.804-10.15,8.023-16.009,6.948
			c-6.243-1.146-8.214-6.69-3.952-11.484c5.85-6.578,22.581-8.464,28.15-0.658C142.505,99.104,142.898,98.406,142.699,98.125
			L142.699,98.125z"/>
	</g>
</g>
<g>
	<g>
		<path fill="#231F20" d="M128.031,118.125c-8.967-1.246-23.455-2.394-22.665-14.772c0.024-0.375-0.022-0.912-0.003-1.205
			c-0.26,4.067,0.098,7.928,3.01,11.103c4.636,5.055,13.367,5.25,19.658,6.125C127.984,119.369,128.098,118.135,128.031,118.125
			L128.031,118.125z"/>
	</g>
</g>
<g>
	<g>
		<path fill="#231F20" d="M152.031,114.792c-3.799,7.301-10.123,16.68-2.141,23.713c4.094,3.606,13.852,3.937,13.734-2.901
			c-0.086-5.003-5.214-6.674-9.098-5c-4.189,1.807-8.171,6.965-8.497,11.542c-0.624,8.736,9.94,14.646,15.335,6.561
			c0.195-0.292-0.189-0.966,0-1.25c-5.291,7.929-14.271,2.681-15.334-5.333c0.001,0.409,0.002,0.818,0.002,1.228
			c0.541-7.583,13.652-18.727,17.441-7.407c1.306,3.901-6.309,3.719-8.137,3.465c-5.363-0.744-9.195-4.844-9.264-10.362
			c-0.001,0.356-0.002,0.711-0.004,1.067c0.577-5.227,3.589-9.515,5.961-14.074C152.204,115.711,151.863,115.116,152.031,114.792
			L152.031,114.792z"/>
	</g>
</g>
<g>
	<g>
		<path fill="#231F20" d="M204.03,128.687c0.354,9.594-3.358,19.182-12.761,22.877c-5.549,2.18-18.771,1.786-19.41-6.329
			c0,0.417,0,0.833,0,1.25c0.348-3.541,2.574-5.841,6.17-5.852c2.266-0.007,4.975,1.583,5.255,3.953c0-0.417,0-0.833,0-1.25
			c-0.339,2.257-2.669,2.914-4.585,3.456c-0.119,0.033,0.1,1.222,0,1.25c4.967-1.407,6.725-6.235,0.937-8.366
			c-6.11-2.249-9.692,5.548-6.641,10.021c2.173,3.186,7.468,4.074,10.994,4.327c5.563,0.399,11.138-2.327,14.789-6.365
			c4.884-5.4,5.511-13.234,5.255-20.178C204.045,127.776,204.016,128.31,204.03,128.687L204.03,128.687z"/>
	</g>
</g>
<g>
	<g>
		<path fill="#231F20" d="M201.365,120.709c0.911,1.446,1.478,2.827,1.625,4.538c-0.001-0.388-0.002-0.776-0.003-1.165
			c-0.155,9.338-14.047,14.659-21.622,16.043c-1.309,0.239-0.103-4.572,0.182-5.059c0.864-1.482,2.518-2.37,4.082-2.901
			c2.855-0.97,6.688-0.17,6.951,3.308c0-0.409-0.001-0.818-0.002-1.228c-0.043,0.946-0.236,1.675-0.547,2.547
			c-0.132,0.373,0.131,0.883,0,1.25c1.206-3.396,0.607-7.15-3.684-7.489c-4.856-0.383-7.785,3.44-7.711,7.847
			c0.018,0.982,0.172,3.076,1.333,2.864c1.737-0.317,3.43-0.882,5.091-1.468c4.252-1.501,8.343-3.693,11.76-6.647
			c4.191-3.625,5.525-8.961,2.545-13.691C201.55,119.753,201.174,120.407,201.365,120.709L201.365,120.709z"/>
	</g>
</g>
<g>
	<g>
		<path fill="#231F20" d="M194.699,112.792c-3.028,5.7-8.236,10.58-13.75,13.833c-7.33,4.324-14.043,0.931-14.608-7.792
			c-0.001,0.409-0.001,0.818-0.001,1.228c0.419-5.422,4.464-8.407,9.656-8.883c3.817-0.35,9,1.614,9.369,5.946
			c0-0.417,0-0.833,0-1.25c-0.313,3.452-3.69,1.596-5.334,0.25c0.199,0.163-0.209,1.078,0,1.25c3.557,2.914,6.107,1.259,5.132-2.708
			c-1.158-4.709-8.021-5.119-11.715-4.365c-4.095,0.836-7.072,4.583-7.113,8.692c-0.058,5.698,2.953,11.65,9.367,10.873
			c7.66-0.928,15.569-9.374,18.997-15.825C194.873,113.714,194.528,113.113,194.699,112.792L194.699,112.792z"/>
	</g>
</g>
<g>
	<g>
		<path fill="#231F20" d="M172.699,105.459c-4.344,6.524-14.619,4.851-20.435,1.555c-9.356-5.304-5.343-16.457,2.451-21.265
			c11.757-7.254,16.021,23.749,5.315,19.71c0.13,0.049-0.146,1.195,0,1.25c5.613,2.118,6.385-4.816,6.25-8.787
			c-0.189-5.518-3.229-17.072-11.02-13.71c-6.613,2.854-11.07,12.531-7.836,19.225c3.844,7.953,19.997,11.196,25.273,3.272
			C172.894,106.416,172.51,105.743,172.699,105.459L172.699,105.459z"/>
	</g>
</g>
<g>
	<g>
		<path fill="#231F20" d="M164.699,126.709c3.027,5.305-2.324,10.667-6.738,13.067c-6.521,3.547-12.859,0.476-15.699-5.977
			c-2.784-6.324,0.922-13.117,6.726-16.034c1.816-0.913,4.04-1.27,5.889-0.298c0.765,0.402,1.196,1.189,1.517,1.947
			c1.5,3.551-3.18,0.315-3.693,0.044c0.164,0.086-0.18,1.156,0,1.25c1.611,0.849,2.134,2.156,4,1.333
			c0.002-0.028,0.003-0.057,0.002-0.085c0.023-1.487,0.072-2.889-0.521-4.297c-1.32-3.125-5.557-1.966-7.793-0.843
			c-4.967,2.496-7.588,8.11-7.176,13.504c0.836,10.964,10.992,15.413,19.564,8.883c4.075-3.104,6.636-8.993,3.924-13.745
			C164.875,125.769,164.518,126.391,164.699,126.709L164.699,126.709z"/>
	</g>
</g>
<g>
	<g>
		<path fill="#231F20" d="M150.699,104.792c-2.035,0.705-4.133,0.75-5.971-0.479c-1.831-1.224-2.49-3.548-2.029-5.604
			c0.089-0.398-0.089-0.855,0-1.25c-0.426,1.9-0.459,4.151,0.295,5.966c1.293,3.109,4.855,3.604,7.705,2.617
			C150.836,105.995,150.578,104.834,150.699,104.792L150.699,104.792z"/>
	</g>
</g>
<g>
	<g>
		<path fill="#231F20" d="M149.365,85.459c-6.41,0.085-12.744,0.915-19.16,0.342c-4.734-0.422-11.725-2.778-12.215-8.488
			c0,0.409,0.001,0.818,0.002,1.228c0.305-4.153,10.969-4.18,11.027-0.833c0.001-0.388,0.002-0.776,0.003-1.165
			c-0.335,1.263-1.92,1.803-2.991,2.25c-0.156,0.065,0.141,1.191,0,1.25c9.036-3.77-5.357-9.269-7.912-3.551
			c-1.318,2.951,1.975,6.549,3.942,8.08c6.872,5.344,19.341,2.244,27.304,2.138C149.38,86.709,149.369,85.459,149.365,85.459
			L149.365,85.459z"/>
	</g>
</g>
<g>
	<g>
		<path fill="#231F20" d="M154.031,77.459c-6.229-2.679-9.551-11.641-7.631-17.854c1.438-4.654,8.652-8.327,13.172-5.997
			c3.043,1.569,3.272,5.997,2.166,8.772c-1.624,4.075-4.225-0.145-5.039-2.255c0.139,0.359-0.142,0.884,0,1.25
			c0.52,1.347,1.593,4.525,3.604,3.953c1.658-0.471,2.012-3.439,2.126-4.789c0.252-2.977-0.166-6.418-2.856-8.181
			c-2.656-1.74-6.396-0.116-8.873,1.101c-3.375,1.658-4.944,5.258-4.98,8.875c-0.063,6.178,2.15,13.725,8.313,16.375
			C153.889,78.647,154.191,77.527,154.031,77.459L154.031,77.459z"/>
	</g>
</g>
<g>
	<g>
		<path fill="#231F20" d="M174.699,75.459c-10.613,8.354-22.049-5.25-24.869-14.813c-2.051-6.954,1.023-13.915,7.842-16.521
			c7.023-2.685,14.445,2.752,15.031,9.901c0-0.409-0.001-0.819-0.002-1.228c-0.158,5.622-9.76,8.145-10.441,1.956
			c0.001,0.409,0.002,0.818,0.002,1.228c0.057-1.271,0.478-2.198,1.104-3.273c0.184-0.315-0.18-0.943,0-1.25
			c-3.043,5.23,1.58,10.581,7.246,7.017c1.962-1.233,2.131-3.54,2.096-5.614c-0.117-6.836-6.488-10.936-12.78-10.482
			c-9.889,0.713-12.032,11.78-10.097,19.517c2.444,9.77,14.494,22.979,24.869,14.813C174.906,76.545,174.502,75.614,174.699,75.459
			L174.699,75.459z"/>
	</g>
</g>
<g>
	<g>
		<path fill="#231F20" d="M203.365,76.125c-12.09,10.011-25.799-1.75-32.078-12.568c-4.105-7.073-6.17-15.858-2.133-23.392
			c1.742-3.253,4.814-5.833,8.518-6.25c3.965-0.447,7.715,4.032,8.037,7.606c-0.001-0.409-0.002-0.818-0.002-1.228
			c-0.35,4.747-5.494,8.298-8.342,3.165c0.174,0.314-0.18,0.928,0,1.25c2.369,4.272,7.922,2.543,8.275-2.262
			c0.136-1.844,0.08-3.349-0.734-5.108c-3.439-7.434-11.331-4.476-15.059,0.487c-2.299,3.063-3.069,7.067-3.08,10.82
			c-0.043,15.902,19.357,43.005,36.598,28.729C203.574,77.202,203.166,76.29,203.365,76.125L203.365,76.125z"/>
	</g>
</g>
<g>
	<g>
		<path fill="#231F20" d="M208.031,53.459c-4.346,2.556-9.457,3.124-14.303,1.794c-4.755-1.305-8.179-5.144-5.865-10.026
			c2.428-5.123,8.334-7.259,13.476-8.549c4.802-1.204,11.444,0.392,11.608,6.426c0-0.409,0.001-0.819,0.002-1.228
			c-0.321,3.073-2.98,3.497-5.584,2.917c0.078,0.018-0.098,1.229,0,1.25c5.092,1.134,6.805-3.156,4.782-7.132
			c-3.985-7.836-16.462-2.537-21.448,1.215c-3.532,2.657-5.168,8.614-2.815,12.492c3.883,6.4,14.731,5.277,20.147,2.092
			C208.221,54.598,207.857,53.562,208.031,53.459L208.031,53.459z"/>
	</g>
</g>
<g>
	<g>
		<path fill="#231F20" d="M216.699,44.125c-2.111,4.158-6.413,2.867-9.438,0.471c-3.789-3.002-6.719-8.521-4.563-13.221
			c0.158-0.348-0.156-0.91,0-1.25c-1.859,4.054-0.81,8.829,1.563,12.425c2.502,3.792,9.413,8.782,12.438,2.825
			C216.869,45.041,216.533,44.453,216.699,44.125L216.699,44.125z"/>
	</g>
</g>
<g>
	<g>
		<path fill="#231F20" d="M222.031,58.125c-2.119-6-5.793-15.397-1.85-21.21c1.968-2.9,6.041-2.535,8.998-1.937
			c6.172,1.247,11.012,6.211,11.219,12.668c0-0.409,0-0.818,0.002-1.228c-0.438,3.866-2.617,6.448-6.465,7.172
			c-2.883,0.542-6.59-0.999-6.801-4.219c-0.002,0.409-0.002,0.818-0.002,1.228c0.236-1.658,1.076-2.719,2.232-3.891
			c0.213-0.216-0.203-1.044,0-1.25c-4.611,4.674-1.188,10.464,5.438,9.219c3.605-0.678,5.604-4.213,5.604-7.634
			c0-4.624-2.203-8.37-5.828-11.183c-3.225-2.503-9.488-3.663-13.114-1.435c-2.527,1.553-2.892,5.046-2.943,7.715
			c-0.113,5.916,1.558,11.705,3.511,17.234C221.902,59.008,222.164,58.499,222.031,58.125L222.031,58.125z"/>
	</g>
</g>
<g>
	<g>
		<path fill="#231F20" d="M212.699,90.709c4.143-1.965,9.119-2.982,12.795,0.43c3.311,3.072,2.816,7.905,0.922,11.559
			c-2.689,5.191-8.475,7.69-13.947,8.618c-4.602,0.78-15.876,0.381-16.102-6.209c-0.001,0.409-0.002,0.818-0.002,1.228
			c0.701-5.398,5.803-8.758,10.838-9.158c3.746-0.298,10.182,0.961,10.738,5.527c0-0.409,0-0.819-0.001-1.228
			c-0.059,1.337-0.515,2.239-1.241,3.318c-0.196,0.291,0.189,0.968,0,1.25c5.582-8.291-7.494-11.361-13.539-9.31
			c-3.633,1.233-6.822,5.46-6.801,9.292c0.03,5.068,6.121,6.205,10.132,6.644c9.571,1.048,21.497-4.248,21.562-15.171
			c0.053-9.195-7.801-11.622-15.354-8.039C212.529,89.539,212.852,90.636,212.699,90.709L212.699,90.709z"/>
	</g>
</g>
<g>
	<g>
		<path fill="#231F20" d="M205.365,84.792c-5.531-5.837-8.561-16.072-2.617-22.662c4.426-4.907,19.01-4.496,19.625,3.604
			c0-0.409,0-0.818-0.001-1.228c-0.188,4.845-9.771,11.771-9.671,4.116c0.004-0.25-0.005-1.142-0.006-1.079
			c-0.06,4.536,2.1,7.858,6.656,4.122c3.339-2.737,4.314-8.076,0.993-11.136c-7.37-6.792-20.128-1.778-20.829,7.931
			c-0.468,6.475,1.301,12.782,5.85,17.582C205.161,85.828,205.577,85.017,205.365,84.792L205.365,84.792z"/>
	</g>
</g>
<g>
	<g>
		<path fill="#231F20" d="M200.031,90.125c-7.135,2.047-13.205,1.121-16.416-6.083c-2.859-6.415-2.992-13.874-4.916-20.583
			c0.109,0.382-0.111,0.863,0,1.25c1.943,6.78,2.301,13.999,4.916,20.583c2.908,7.323,9.539,8.056,16.416,6.083
			C200.15,91.341,199.93,90.155,200.031,90.125L200.031,90.125z"/>
	</g>
</g>
<g>
	<g>
		<path fill="#231F20" d="M196.699,64.792c-7.826,6.675-16.805-2.882-14.668-11.417c0.1-0.394-0.098-0.86,0-1.25
			c-0.836,3.342-0.604,6.916,0.738,10.092c2.502,5.923,8.925,8.093,13.93,3.825C196.91,65.862,196.498,64.963,196.699,64.792
			L196.699,64.792z"/>
	</g>
</g>
<g>
	<g>
		<path fill="#231F20" d="M229.365,81.375c11.863-4.511,17.715-14.946,16.666-27.25c0.035,0.413-0.035,0.836,0,1.25
			c0.984,11.556-6.219,20.777-16.666,24.75C229.219,80.181,229.494,81.326,229.365,81.375L229.365,81.375z"/>
	</g>
</g>
<g>
	<g>
		<path fill="#231F20" d="M220.699,72.709c12.197,1.736,19.697-12.03,19.334-22.561c0.01,0.294-0.016,0.829-0.004,1.205
			c0.34,9.879-8.855,21.597-19.33,20.106C220.748,71.466,220.631,72.699,220.699,72.709L220.699,72.709z"/>
	</g>
</g>
<g>
	<g>
		<path fill="#231F20" d="M218.031,56.042c11.109,0.927,20.512-13.386,10.668-21.25c0.197,0.158-0.209,1.083,0,1.25
			c9.59,7.66-0.865,19.568-10.668,18.75C218.057,54.794,217.988,56.039,218.031,56.042L218.031,56.042z"/>
	</g>
</g>
<g>
	<g>
		<path fill="#231F20" d="M240.699,40.792c-2.297-0.583-5.301-1.38-6.748-3.449c-0.191-0.275-0.33-0.583-0.414-0.908
			c-0.117-0.444,0.002-1.235-0.063,0.554c0.006-0.191,0.049-0.38,0.102-0.563c0.191-0.663,0.652-1.223,1.15-1.682
			c2.449-2.256,7.016-3.014,9.85-1.102c1.336,0.901,2.027,2.398,2.264,3.952c0.043,0.288,0.064,0.578,0.078,0.868
			c-0.047-0.924-0.029,0.217-0.051,0.448c-0.061,0.648-0.176,1.29-0.313,1.925c-0.076,0.356-0.166,0.708-0.26,1.06
			c-0.084,0.314-0.113,1.073-0.43,0.699c-0.592-0.703-0.561-1.75-1.166-2.47c0.201,0.239-0.209,1.001,0,1.25
			c0.365,0.436,0.533,0.937,0.711,1.47c0.09,0.268,0.193,0.521,0.316,0.775c0.115,0.239,0.244,0.617,0.375,0.194
			c0.275-0.892,0.49-1.802,0.645-2.722c0.201-1.21,0.225-2.453,0.182-3.677c-0.072-2.028-0.76-3.996-2.525-5.137
			c-2.865-1.85-7.428-0.925-9.809,1.339c-1.146,1.092-1.527,2.961-0.932,4.446c0.994,2.48,4.777,3.406,7.037,3.979
			C240.607,42.02,240.807,40.82,240.699,40.792L240.699,40.792z"/>
	</g>
</g>
<g>
	<g>
		<path fill="#231F20" d="M241.365,52.042c3.158-7.933,10.893-7.366,16.881-2.825c5.205,3.948,9.596,11.919,1.785,15.575
			c-0.168,0.079,0.152,1.179,0,1.25c15.279-7.151-11.285-33.788-18.666-15.25C241.221,51.155,241.506,51.687,241.365,52.042
			L241.365,52.042z"/>
	</g>
</g>
<g>
	<g>
		<path fill="#231F20" d="M257.365,84.709c1.412-7.279,3.584-15.397,10.016-19.842c6.729-4.649,19.295-1.146,20.406,7.618
			c0-0.417,0-0.833,0-1.25c-0.654,8.504-11.189,6.997-11.584-0.781c0,0.409,0,0.818-0.002,1.228
			c0.033-0.798,0.197-1.566,0.498-2.307c0.117-0.384-0.115-0.872,0-1.25c-1.105,3.621-0.443,7.314,2.92,9.596
			c4.615,3.132,8.322-2.278,8.17-6.464c-0.33-9.038-13.098-11.201-19.516-8.158c-7.207,3.418-9.541,13.308-10.908,20.359
			C257.287,83.862,257.441,84.31,257.365,84.709L257.365,84.709z"/>
	</g>
</g>
<g>
	<g>
		<path fill="#231F20" d="M255.367,84.211c-0.006-0.289-0.012-0.578-0.018-0.866c-0.002,0.388-0.002,0.776-0.004,1.165
			c0.51-5.903,5.619-10.072,10.982-11.705c4.381-1.334,11.594,0.481,11.65,6.086c0.002-0.355,0.002-0.711,0.004-1.067
			c-0.471,4.192-5.418,5.617-8.979,5.806c-5.221,0.278-9.758-2.677-11.639-7.504c0.139,0.358-0.143,0.885,0,1.25
			c2.406,6.176,8.758,8.572,14.971,7.006c3.621-0.913,5.682-3.268,5.646-6.88c-0.078-7.743-10.756-6.813-15.283-4.459
			c-4.785,2.488-7.449,6.998-7.338,12.248C255.363,85.353,255.373,84.46,255.367,84.211L255.367,84.211z"/>
	</g>
</g>
<g>
	<g>
		<path fill="#231F20" d="M260.701,95.353c0.846-11.728,16.227-14.827,23.715-6.915c10.84,11.449-17.068,21.314-19.023,8.289
			c0.002,0.356,0.004,0.711,0.004,1.067c0.059-7.257,17.393-10.053,18.635-2.418c-0.064-0.404,0.066-0.843,0-1.25
			c-1.209-7.439-18.518-4.939-18.637,2.046c-0.168,9.804,13.057,9.048,18.803,4.47c5.26-4.19,1.912-12.951-2.646-15.764
			c-8.244-5.089-20.123-0.85-20.854,9.27C260.67,94.523,260.721,95.06,260.701,95.353L260.701,95.353z"/>
	</g>
</g>
<g>
	<g>
		<path fill="#231F20" d="M232.031,133.375c6.111-0.021,14.277,0.122,18.322-5.333c2.355-3.179,1.752-8.302,1.012-11.917
			c0.08,0.398-0.082,0.849,0,1.25c2.701,13.187-9.297,14.714-19.334,14.75C232.021,132.125,232.023,133.375,232.031,133.375
			L232.031,133.375z"/>
	</g>
</g>
<g>
	<g>
		<path fill="#231F20" d="M225.365,118.042c11.102,10.383,24.947,1.844,26-12c0.031-0.415-0.031-0.836,0-1.25
			c-1.053,13.844-14.898,22.383-26,12C225.568,116.982,225.152,117.843,225.365,118.042L225.365,118.042z"/>
	</g>
</g>
<g>
	<g>
		<path fill="#231F20" d="M242.699,136.042c3.879-0.869,8.1-0.542,7.377,4.429c-0.77,5.271-3.176,10.315-4.666,15.404
			c-2.014,6.871-2.861,15.667,6.621,16.167c-0.012,0,0.031-1.249,0-1.25c-13.52-0.712-5.59-16.604-3.193-24.179
			c0.84-2.657,1.471-5.314,1.424-8.107c-0.076-4.516-4-4.512-7.563-3.714C242.602,134.814,242.779,136.024,242.699,136.042
			L242.699,136.042z"/>
	</g>
</g>
<g>
	<g>
		<path fill="#231F20" d="M306.699,189.459c-3.996-0.804-8.766-2.223-12.326,0.49c-2.465,1.878-2.943,5.183-2.926,8.053
			c0.039,6.771,8.631,13.833,14.936,9.32c2.705-1.938,2.717-6.253,2.055-9.2c-1.33-5.921-6.748-7.219-11.072-3.331
			c-0.213,0.191,0.201,1.068,0,1.25c2.332-2.098,5.301-3.443,8.137-1.469c2.281,1.588,3.537,5.094,3.066,7.762
			c-0.547,3.112-3.064,4.833-6.086,4.997c-5.863,0.314-10.555-4.673-11.031-10.27c0.002,0.355,0.004,0.711,0.006,1.067
			c0.035-3.601,1.826-7.058,5.367-8.213c3.059-0.998,6.857,0.187,9.875,0.793C306.627,190.695,306.789,189.478,306.699,189.459
			L306.699,189.459z"/>
	</g>
</g>
<g>
	<g>
		<path fill="#231F20" d="M284.031,218.043c4.143,2.852,7.99,6.717,10.172,11.29c2.949,6.187-5.033,9.146-9.969,8.29
			c-7.932-1.374-2.387-16.174,4.465-7.58c0-0.417,0-0.834,0-1.25c-3.383,1.419-2.883-0.735-5.334-2c0.162,0.083-0.178,1.158,0,1.25
			c2.451,1.265,1.951,3.419,5.334,2c0.039-0.018,0.059-1.176,0-1.25c-6.959-8.729-12.775,7.018-5.039,9.926
			c4.934,1.854,11.422-1.549,11.389-6.9c-0.035-6.144-6.361-11.818-11.018-15.025C284.221,216.922,283.83,217.904,284.031,218.043
			L284.031,218.043z"/>
	</g>
</g>
<g>
	<g>
		<path fill="#231F20" d="M291.365,207.375c0.6,0.493,1.129,1.057,1.441,1.777c0.219,0.504,0.074,1.309,0.189,0.018
			c-0.027,0.305-0.129,0.598-0.258,0.871c-0.531,1.131-1.762,1.846-2.93,2.143c-1.219,0.311-2.574,0.104-3.473-0.822
			c-0.521-0.538-0.77-1.278-0.889-2.002c-0.045-0.271-0.006-1.209-0.053-0.156c0.016-0.335,0.061-0.668,0.111-1
			c0.109-0.733,0.309-1.453,0.525-2.16c0.119-0.383-0.115-0.873,0-1.25c-0.631,2.047-1.137,4.834-0.281,6.91
			c0.656,1.592,2.377,2.08,3.949,1.756c1.441-0.298,2.943-1.329,3.268-2.838c0.383-1.785-0.215-3.357-1.602-4.496
			C291.563,206.288,291.154,207.203,291.365,207.375L291.365,207.375z"/>
	</g>
</g>
<g>
	<g>
		<path fill="#231F20" d="M300.031,154.042c8.096-1.701,14.906,3.126,16.59,11.131c1.488,7.078-5.199,16.536-12.699,16.29
			c-5.029-0.165-9.064-4.93-10.955-9.154c-2.225-4.976,0.463-8.281,5.732-7.599c-0.045-0.006,0.063-1.242,0-1.25
			c-4.514-0.584-7.006,1.608-6.711,6.027c0.41,6.151,5.668,12.537,11.934,13.227c7.568,0.833,12.939-8.855,12.922-15.262
			c-0.023-9.404-7.125-16.693-16.813-14.658C299.939,152.812,300.107,154.027,300.031,154.042L300.031,154.042z"/>
	</g>
</g>
<g>
	<g>
		<path fill="#231F20" d="M306.699,142.042c9.266-0.419,14.842,3.235,17.656,12.114c1.355,4.28,0.75,9.466-1.973,13.115
			c-2.91,3.903-6.68-0.608-8.352-3.146c0.189,0.286-0.193,0.955,0,1.25c2.904,4.41,6.885,6.654,9.672,0.953
			c1.195-2.446,1.449-5.327,1.422-8.018c-0.043-4.357-1.471-8.625-3.908-12.234c-3.256-4.822-9.174-5.526-14.518-5.284
			C306.67,140.794,306.709,142.042,306.699,142.042L306.699,142.042z"/>
	</g>
</g>
<g>
	<g>
		<path fill="#231F20" d="M298.699,142.125c-2.449-6.203-3.471-15.377,3.367-19.121c6.021-3.297,13.646,1.365,13.797,8.024
			c0.002-0.388,0.002-0.776,0.004-1.165c-0.27,3.507-2.539,5.442-5.836,6.261c-0.105,0.026,0.09,1.228,0,1.25
			c10.266-2.55,5.682-16.154-3.332-16.583c-11.943-0.568-10.898,15.24-8,22.583C298.559,143.019,298.842,142.489,298.699,142.125
			L298.699,142.125z"/>
	</g>
</g>
<g>
	<g>
		<path fill="#231F20" d="M292.699,120.792c-1.295-6.784,4.35-18.071,12.613-15.005c3.574,1.327,4.773,5.476,3.693,8.833
			c-1.094,3.395-4.189,5.369-7.641,5.505c-0.027,0.001,0.006,1.25,0,1.25c8.227-0.326,11.813-13.094,3.947-16.838
			c-5.881-2.799-10.549,3.789-12.063,8.51c-0.889,2.777-1.104,6.104-0.551,8.995C292.623,121.643,292.775,121.196,292.699,120.792
			L292.699,120.792z"/>
	</g>
</g>
<g opacity="0.6">
	<g>
		<path fill="#231F20" d="M229.365,87.375c12.469,1.799,13.791,20.945,0,21.417c-0.023,0.001,0.004,1.25,0,1.25
			c14.375-0.492,12.963-22.047,0-23.917C229.414,86.133,229.297,87.366,229.365,87.375L229.365,87.375z"/>
	</g>
</g>
<g opacity="0.6">
	<g>
		<path fill="#231F20" d="M220.699,116.792c-6.662,10.947-1.553,24.216-2.002,36.022c-0.015,0.376,0.014,0.911,0.003,1.205
			c0.452-11.903-4.559-25.203,1.999-35.978C220.887,117.734,220.516,117.092,220.699,116.792L220.699,116.792z"/>
	</g>
</g>
<g opacity="0.6">
	<g>
		<path fill="#231F20" d="M265.365,120.792c-7.684,8.498,12.357,13.057,17.508,12.627c4.447-0.372,6.732-4.173,6.662-8.333
			c-0.117-6.839-9.467-9.369-14.17-5.627c-0.209,0.166,0.197,1.093,0,1.25c4.973-3.957,13.475-1.069,14.166,5.542
			c0-0.409,0-0.818,0-1.228c-0.234,7.315-7.432,7.729-12.92,6.782c-4.082-0.705-12.068-2.923-12.656-7.975c0,0.409,0,0.818,0,1.228
			c0.051-1.271,0.582-2.1,1.41-3.015C265.576,121.809,265.162,121.017,265.365,120.792L265.365,120.792z"/>
	</g>
</g>
<g opacity="0.6">
	<g>
		<path fill="#231F20" d="M247.365,88.792c-6.883,10.603,10.545,19.723,19.334,18.583c0.063-0.008-0.045-1.244,0-1.25
			c-7.168,0.93-25.479-6.618-19.334-16.083C247.559,89.745,247.178,89.081,247.365,88.792L247.365,88.792z"/>
	</g>
</g>
<g opacity="0.6">
	<g>
		<path fill="#231F20" d="M253.363,85.353c0.283,7.032,7.15,12.456,14.002,12.022c0.035-0.002-0.018-1.249,0-1.25
			c-6.814,0.431-13.715-4.96-13.998-11.978C253.379,84.442,253.348,84.977,253.363,85.353L253.363,85.353z"/>
	</g>
</g>
<g opacity="0.6">
	<g>
		<path fill="#231F20" d="M286.031,136.125c-6.107-1.106-8.451,3.884-8.459,9.15c-0.006,6.127,3.438,11.781,9.375,13.725
			c5.758,1.884,13.467-1.438,13.506-8.046c0.039-6.685-6.629-7.061-11.754-5.496c-0.125,0.038,0.107,1.217,0,1.25
			c3.471-1.06,12.365-1.799,11.676,4.426c-0.639,5.759-7.816,7.678-12.57,6.831c-5.479-0.976-8.982-5.981-10.008-11.125
			c-1.096-5.503,2.5-10.504,8.234-9.466C285.969,137.364,286.113,136.14,286.031,136.125L286.031,136.125z"/>
	</g>
</g>
<g opacity="0.6">
	<g>
		<path fill="#231F20" d="M285.365,164.792c-3.701,8.388-4.303,21.513,8,21.917c-0.004,0,0.023-1.249,0-1.25
			c-11.193-0.368-11.699-11.03-8-19.417C285.52,165.69,285.213,165.138,285.365,164.792L285.365,164.792z"/>
	</g>
</g>
<g opacity="0.6">
	<g>
		<path fill="#231F20" d="M282.031,188.709c1.854,6.026,0.557,13.194,8,15.333c-0.102-0.029,0.119-1.216,0-1.25
			c-7.443-2.139-6.146-9.307-8-15.333C282.148,187.837,281.914,188.326,282.031,188.709L282.031,188.709z"/>
	</g>
</g>
<g opacity="0.6">
	<g>
		<path fill="#231F20" d="M274.031,138.709c1.686,11.425-9.08,18.416-19.332,18.083c0.004,0-0.023,1.249,0,1.25
			c12.193,0.395,21.117-8.479,19.332-20.583C274.092,137.865,273.971,138.3,274.031,138.709L274.031,138.709z"/>
	</g>
</g>
<g opacity="0.6">
	<g>
		<path fill="#231F20" d="M268.031,143.459c-3.279-2.295-9.771,3.114-12.76,4.367c-7.256,3.042-10.102-3.873-10.133-10.215
			c-0.002,0.313-0.004,0.627-0.006,0.94c0.654-8.294,13.961-7.341,14.744,0.098c0-0.41,0-0.819,0-1.228
			c-0.109,3.44-1.104,0.852-1.846-0.629c0.166,0.329-0.168,0.913,0,1.25c0.619,1.237,1.322,4.061,1.83,1.113
			c0.059-0.343,0.023-0.775,0.023-1.13c0-1.74-0.732-3.032-2.012-4.207c-4.217-3.867-12.494-3.303-12.742,3.506
			c-0.164,4.503,0.609,12.22,6.258,12.62c4.869,0.344,12.352-8.238,16.643-5.235C267.842,144.577,268.234,143.6,268.031,143.459
			L268.031,143.459z"/>
	</g>
</g>
<g opacity="0.6">
	<g>
		<path fill="#231F20" d="M242.031,139.459c-7.693-0.654-21.734,1-22.021-10.245c-0.001,0.409-0.002,0.818-0.002,1.228
			c0.635-6.782,10.25-9.268,10.689-1.088c-0.016-0.293,0.023-0.829,0.004-1.205c-0.473-8.809-10.771-5.187-10.697,2.11
			c0.113,11.407,14.252,9.79,22.027,10.451C242.006,140.707,242.076,139.463,242.031,139.459L242.031,139.459z"/>
	</g>
</g>
<g opacity="0.6">
	<g>
		<path fill="#231F20" d="M197.365,98.792c-4.203,0.418-8.707-0.526-12.764-1.516c-3.268-0.797-9.863-2.406-10.217-6.612
			c0.001,0.409,0.002,0.818,0.002,1.228c0.11-1.649,1.152-2.778,2.313-3.849c0.213-0.196-0.203-1.063,0-1.25
			c-10.441,9.637,14.934,13.821,20.666,13.25C197.415,100.038,197.333,98.795,197.365,98.792L197.365,98.792z"/>
	</g>
</g>
<g opacity="0.6">
	<g>
		<path fill="#231F20" d="M284.031,108.709c6.26,5.523,13.465,1.663,14.74-6.08c0.852-5.164-1.273-10.584-5.922-13.209
			c-5.531-3.121-14.348-2.425-14.326,5.571c0.02,6.619,8.848,7.83,12.842,3.717c0.213-0.219-0.203-1.041,0-1.25
			c-3.578,3.685-12.725,3.294-12.832-3.173c0,0.388-0.002,0.776-0.002,1.165c0.555-4.964,4.625-7.092,9.223-6.511
			c4.764,0.603,8.76,3.649,10.477,8.111c1.578,4.097-0.143,8.843-3.359,11.604c-3.445,2.958-7.795,1.491-10.84-1.195
			C284.232,107.637,283.82,108.522,284.031,108.709L284.031,108.709z"/>
	</g>
</g>
<g opacity="0.6">
	<g>
		<path fill="#231F20" d="M272.699,106.042c1.137,4.522,0.646,9.952-2.727,13.452c-3.109,3.227-9.248,1.913-12.139-0.972
			c-4.42-4.409,8.172-11.311,7.531-3.73c-0.035,0.414,0.035,0.837,0,1.25c0.238-2.814,0.023-6.976-3.947-5.758
			c-3.271,1.004-4.803,4.155-4.598,7.331c0.188,2.893,3.756,3.993,6.006,4.664c3.527,1.052,6.709-0.39,8.604-3.414
			c2.408-3.839,2.348-9.777,1.27-14.073C272.797,105.182,272.6,105.648,272.699,106.042L272.699,106.042z"/>
	</g>
</g>
<g opacity="0.6">
	<g>
		<path fill="#231F20" d="M244.031,82.042c13.586-3.697,14.092-17.921,8.668-28.583c0.166,0.327-0.17,0.916,0,1.25
			c5.348,10.515,3.883,22.668-8.668,26.083C243.918,80.824,244.129,82.016,244.031,82.042L244.031,82.042z"/>
	</g>
</g>
<g opacity="0.6">
	<g>
		<path fill="#231F20" d="M211.365,119.375c6.289,16.151-3.315,34.469-20,38.75c-0.109,0.028,0.091,1.227,0,1.25
			c17.824-4.574,26.463-24.653,20-41.25C211.504,118.484,211.223,119.011,211.365,119.375L211.365,119.375z"/>
	</g>
</g>
<g opacity="0.6">
	<g>
		<path fill="#231F20" d="M211.365,175.459c-2.682-3.177-6.501-4.62-10-6.667c0.174,0.102-0.189,1.14,0,1.25
			c3.499,2.047,7.318,3.49,10,6.667C211.164,176.471,211.574,175.708,211.365,175.459L211.365,175.459z"/>
	</g>
</g>
<g opacity="0.6">
	<g>
		<path fill="#231F20" d="M205.697,174.792c-3.482-2.711-7.4-4.7-11.332-6.667c0.158,0.08-0.175,1.163,0,1.25
			c3.932,1.967,7.85,3.956,11.332,6.667C205.502,175.89,205.905,174.954,205.697,174.792L205.697,174.792z"/>
	</g>
</g>
<g opacity="0.6">
	<g>
		<path fill="#231F20" d="M203.365,172.125c-1.43-2.015-3.713-3.213-6-4c0.119,0.041-0.137,1.203,0,1.25c2.287,0.787,4.57,1.985,6,4
			C203.172,173.103,203.564,172.407,203.365,172.125L203.365,172.125z"/>
	</g>
</g>
<g opacity="0.6">
	<g>
		<path fill="#231F20" d="M201.365,174.125c-2.25-1.538-4.23-3.401-6.666-4.666c0.162,0.084-0.178,1.158,0,1.25
			c2.436,1.265,4.416,3.128,6.666,4.666C201.178,175.248,201.566,174.262,201.365,174.125L201.365,174.125z"/>
	</g>
</g>
<g opacity="0.6">
	<g>
		<path fill="#231F20" d="M207.365,173.792c-1.179-1.146-2.541-1.936-4-2.667c0.158,0.08-0.175,1.163,0,1.25
			c1.459,0.731,2.821,1.521,4,2.667C207.162,174.845,207.578,174,207.365,173.792L207.365,173.792z"/>
	</g>
</g>
<g opacity="0.6">
	<g>
		<path fill="#231F20" d="M200.365,174.125c-3.32-0.115-6.307-1.729-8.668-4c0.203,0.195-0.213,1.045,0,1.25
			c2.361,2.271,5.348,3.885,8.668,4C200.359,175.375,200.389,174.126,200.365,174.125L200.365,174.125z"/>
	</g>
</g>
<g opacity="0.6">
	<g>
		<path fill="#231F20" d="M197.031,172.459c-1.899-1.833-4.039-2.631-6.666-2.667c-0.004,0-0.015,1.25,0,1.25
			c2.627,0.036,4.767,0.833,6.666,2.667C196.828,173.513,197.244,172.665,197.031,172.459L197.031,172.459z"/>
	</g>
</g>
<g opacity="0.6">
	<g>
		<path fill="#231F20" d="M190.031,174.792c-3.039-1.495-6.19-2.743-9.334-4c0.136,0.054-0.151,1.189,0,1.25
			c3.144,1.257,6.295,2.505,9.334,4C189.875,175.965,190.204,174.877,190.031,174.792L190.031,174.792z"/>
	</g>
</g>
<g opacity="0.6">
	<g>
		<path fill="#231F20" d="M194.033,173.458c-2.553-0.075-4.598-1.289-6.668-2.667c0.186,0.124-0.198,1.118,0,1.25
			c2.07,1.378,4.115,2.592,6.668,2.667C194.029,174.708,194.055,173.459,194.033,173.458L194.033,173.458z"/>
	</g>
</g>
<g opacity="0.6">
	<g>
		<path fill="#231F20" d="M185.365,174.792c-2.667-0.667-5.334-1.333-8-2c0.088,0.022-0.107,1.223,0,1.25
			c2.666,0.667,5.333,1.333,8,2C185.275,176.02,185.472,174.819,185.365,174.792L185.365,174.792z"/>
	</g>
</g>
<g opacity="0.6">
	<g>
		<path fill="#231F20" d="M180.699,176.125c-2.485-1.261-4.85-2.739-7.334-4c0.16,0.082-0.176,1.161,0,1.25
			c2.484,1.261,4.849,2.739,7.334,4C180.538,177.294,180.875,176.214,180.699,176.125L180.699,176.125z"/>
	</g>
</g>
<g opacity="0.6">
	<g>
		<path fill="#231F20" d="M175.365,175.792c-1.439-2.042-3.679-2.744-6-3.332c0.09,0.023-0.108,1.223,0,1.25
			c2.321,0.588,4.561,1.291,6,3.332C175.172,176.768,175.564,176.074,175.365,175.792L175.365,175.792z"/>
	</g>
</g>
<g opacity="0.6">
	<g>
		<path fill="#231F20" d="M193.365,168.792c-2.177-0.669-4.489-0.665-6.666-1.333c0.107,0.033-0.126,1.211,0,1.25
			c2.177,0.668,4.489,0.664,6.666,1.333C193.258,170.009,193.491,168.831,193.365,168.792L193.365,168.792z"/>
	</g>
</g>
<g opacity="0.6">
	<g>
		<path fill="#231F20" d="M190.031,172.792c-3.039-1.494-6.191-2.742-9.334-4c0.137,0.054-0.151,1.189,0,1.25
			c3.143,1.258,6.295,2.506,9.334,4C189.875,173.964,190.204,172.876,190.031,172.792L190.031,172.792z"/>
	</g>
</g>
<g opacity="0.6">
	<g>
		<path fill="#231F20" d="M182.699,173.459c-1.115-1.09-2.582-1.926-3.334-3.334c0.17,0.32-0.176,0.922,0,1.25
			c0.752,1.408,2.219,2.244,3.334,3.334C182.496,174.511,182.912,173.668,182.699,173.459L182.699,173.459z"/>
	</g>
</g>
<g opacity="0.6">
	<g>
		<path fill="#231F20" d="M180.031,171.459c-1.333,0-2.666,0-4,0c-0.009,0-0.009,1.25,0,1.25c1.334,0,2.667,0,4,0
			C180.041,172.709,180.041,171.459,180.031,171.459L180.031,171.459z"/>
	</g>
</g>
<g opacity="0.6">
	<g>
		<path fill="#231F20" d="M188.906,170.125c-1.916-0.667-3.832-1.333-5.75-2c0.121,0.042-0.137,1.202,0,1.25
			c1.918,0.667,3.834,1.333,5.75,2C188.786,171.333,189.045,170.173,188.906,170.125L188.906,170.125z"/>
	</g>
</g>
<g opacity="0.6">
	<g>
		<path fill="#231F20" d="M245.127,178.042c1.689-2.361,4.578-3.919,7.332-4.667c0.115-0.031-0.096-1.224,0-1.25
			c-2.754,0.748-5.643,2.306-7.332,4.667C244.926,177.072,245.32,177.771,245.127,178.042L245.127,178.042z"/>
	</g>
</g>
<g opacity="0.6">
	<g>
		<path fill="#231F20" d="M250.883,177.042c1.645-3.416,5.17-4.925,8.816-5c0.018,0,0-1.25,0-1.25c-3.646,0.075-7.172,1.584-8.816,5
			C250.719,176.134,251.045,176.708,250.883,177.042L250.883,177.042z"/>
	</g>
</g>
<g opacity="0.6">
	<g>
		<path fill="#231F20" d="M249.18,177.493c1.189-2.018,3.354-3.552,5.703-3.818c0.057-0.006-0.037-1.246,0-1.25
			c-2.35,0.266-4.514,1.8-5.703,3.818C248.996,176.556,249.359,177.188,249.18,177.493L249.18,177.493z"/>
	</g>
</g>
<g opacity="0.6">
	<g>
		<path fill="#231F20" d="M257.699,177.042c3.455-0.739,6.729-2.025,10-3.333c0.15-0.061-0.137-1.196,0-1.25
			c-3.271,1.308-6.545,2.594-10,3.333C257.604,175.813,257.775,177.026,257.699,177.042L257.699,177.042z"/>
	</g>
</g>
<g opacity="0.6">
	<g>
		<path fill="#231F20" d="M255.365,176.709c2.406-1.193,4.926-2.141,7.334-3.334c0.172-0.086-0.158-1.171,0-1.25
			c-2.408,1.193-4.928,2.141-7.334,3.334C255.191,175.545,255.523,176.631,255.365,176.709L255.365,176.709z"/>
	</g>
</g>
<g opacity="0.6">
	<g>
		<path fill="#231F20" d="M254.031,176.042c1.15-1.818,3.381-2.443,5.334-3c0.117-0.034-0.102-1.221,0-1.25
			c-1.953,0.557-4.184,1.182-5.334,3C253.842,175.094,254.217,175.75,254.031,176.042L254.031,176.042z"/>
	</g>
</g>
<g opacity="0.6">
	<g>
		<path fill="#231F20" d="M264.365,177.795c1.629-2.238,4.664-3.228,7.332-2.666c-0.074-0.016,0.094-1.23,0-1.25
			c-2.668-0.562-5.703,0.428-7.332,2.666C264.164,176.822,264.561,177.528,264.365,177.795L264.365,177.795z"/>
	</g>
</g>
<g opacity="0.6">
	<g>
		<path fill="#231F20" d="M259.699,174.008c1.961-0.609,3.961-0.666,6-0.667c0.01,0,0.008-1.25,0-1.25
			c-2.039,0.001-4.039,0.058-6,0.667C259.572,172.797,259.809,173.975,259.699,174.008L259.699,174.008z"/>
	</g>
</g>
<g opacity="0.6">
	<g>
		<path fill="#231F20" d="M264.031,176.709c0.75-2.011,2.721-2.593,4.668-2c-0.107-0.033,0.125-1.212,0-1.25
			c-1.947-0.593-3.918-0.011-4.668,2C263.895,175.828,264.166,176.347,264.031,176.709L264.031,176.709z"/>
	</g>
</g>
<g opacity="0.6">
	<g>
		<path fill="#231F20" d="M269.365,178.042c1.895-0.667,3.559-1.755,5.334-2.667c0.176-0.091-0.162-1.167,0-1.25
			c-1.775,0.912-3.439,2-5.334,2.667C269.227,176.841,269.488,178,269.365,178.042L269.365,178.042z"/>
	</g>
</g>
<g opacity="0.6">
	<g>
		<path fill="#231F20" d="M266.723,178.241c1.23-1.959,3.02-2.687,5.285-2.23c-0.072-0.014,0.09-1.232,0-1.25
			c-2.266-0.456-4.055,0.271-5.285,2.23C266.533,177.294,266.908,177.946,266.723,178.241L266.723,178.241z"/>
	</g>
</g>
<g opacity="0.6">
	<g>
		<path fill="#231F20" d="M262.699,175.375c0.01,0,0.01-1.25,0-1.25S262.689,175.375,262.699,175.375L262.699,175.375z"/>
	</g>
</g>
<g opacity="0.6">
	<g>
		<path fill="#231F20" d="M272.336,177.835c0.365-0.029,0.732-0.058,1.1-0.087c0.041-0.003-0.023-1.248,0-1.25
			c-0.367,0.029-0.734,0.058-1.1,0.087C272.293,176.589,272.359,177.833,272.336,177.835L272.336,177.835z"/>
	</g>
</g>
<g opacity="0.6">
	<g>
		<path fill="#231F20" d="M272.031,176.709c0.445,0,0.889,0,1.334,0c0.01,0,0.01-1.25,0-1.25c-0.445,0-0.889,0-1.334,0
			C272.021,175.459,272.021,176.709,272.031,176.709L272.031,176.709z"/>
	</g>
</g>
<g opacity="0.6">
	<g>
		<path fill="#231F20" d="M168.721,491.488c-0.113-17.414,7.17-34.747,14.82-50.023c8.053-16.078,17.834-31.219,25.964-47.256
			c9.12-17.991,15.978-37.273,23.017-56.147c7.639-20.484,14.938-41.095,22.844-61.479c0.566-1.461-0.557-3.564,0-5
			c-8.371,21.582-16.082,43.41-24.193,65.09c-7.527,20.124-15.1,40.432-25.25,59.408c-9.006,16.839-19.355,32.938-27.137,50.419
			c-6.787,15.247-10.216,30.857-10.107,47.513C168.697,497.076,168.725,492.239,168.721,491.488L168.721,491.488z"/>
	</g>
</g>
<g opacity="0.6">
	<g>
		<path fill="#231F20" d="M214.699,375.584c-20.405-35.939-52.254-70.301-52.65-113.936c-0.017-1.891-0.04,2.936-0.035,3.535
			c0.404,44.515,31.846,78.695,52.686,115.4C213.992,379.341,215.424,376.86,214.699,375.584L214.699,375.584z"/>
	</g>
</g>
<g opacity="0.6">
	<g>
		<path fill="#231F20" d="M246.699,294.916c-2.375,9.481-2.221,20.225-0.389,29.793c0.553,2.887,1.717,5.641,2.832,8.344
			c0.393,0.951,0.764,1.906,1.109,2.875c0.201,0.588,0.367,1.186,0.496,1.794c0.17-1.799,0.096-2.008-0.217-0.628
			c-1.666,5.85-9.406,9.233-13.393,13.376c-6.223,6.468,0.465,16.45,5.168,21.104c5.43,5.374,12.025,9.502,18.055,14.146
			c5.082,3.912,10.844,8.767,11.424,15.601c-0.006-1.423-0.012-2.846-0.018-4.268c-0.076,9.474-12.936,15.71-19.74,19.88
			c-10.305,6.314-20.506,12.646-30.975,18.701c-11.084,6.412-20.798,13.573-28.822,23.624c-7.896,9.891-15.808,22.216-17.531,34.992
			c-0.223,1.641,0.22,3.369,0,5c1.238-9.18,5.857-17.627,10.715-25.367c5.023-8.001,11.021-15.595,18.291-21.657
			c7.266-6.058,15.68-10.684,23.883-15.321c7.975-4.509,15.563-9.506,23.354-14.306c6.354-3.913,13.268-7.669,18.041-13.551
			c3.025-3.729,2.975-8.104,2.811-12.639c-0.324-8.886-10.359-14.985-16.689-19.631c-6.799-4.99-19.199-12.239-20.047-21.612
			c0.002,1.637,0.004,3.273,0.008,4.91c0.361-5.848,8.303-9.722,12.125-13.22c3.375-3.089,3.801-6.329,3.789-10.554
			c-0.012-4.188-1.637-7.617-3.133-11.479c-3.09-7.979-3.209-16.673-1.146-24.907C247.094,298.34,246.309,296.475,246.699,294.916
			L246.699,294.916z"/>
	</g>
</g>
<g opacity="0.8">
	<g>
		<path fill="#231F20" d="M170.031,302.584c5.359,10.558,1.962,22.531,3.307,33.878c0.654,5.53,3.258,10.008,7.023,13.971
			c2.563,2.696,5.787,5.189,5.883,9.219c0.003-1.637,0.005-3.274,0.008-4.911c-0.665,8.188-9.498,15.062-14.459,20.95
			c-5.631,6.686-11.104,14.688-11.194,23.758c-0.067,6.813,0.633,11.707,5.327,17.123c6.133,7.075,14.408,11.935,19.439,20.013
			c-0.737-1.184,0.758-3.783,0-5c-3.826-6.144-9.522-10.656-14.831-15.452c-5.296-4.785-10.94-10.331-9.03-17.975
			c1.99-7.967,7.865-14.742,13.129-20.777c4.338-4.975,11.049-10.622,11.619-17.64c0.216-2.665,0.349-5.914-0.792-8.377
			c-1.987-4.288-6.746-7.159-9.262-11.21c-4.424-7.124-2.862-15.863-2.816-23.791c0.038-6.583-0.298-12.767-3.351-18.778
			C170.696,298.894,169.352,301.244,170.031,302.584L170.031,302.584z"/>
	</g>
</g>
<g opacity="0.8">
	<g>
		<path fill="#231F20" d="M237.365,391.25c4.773,4.834,9.021,10.118,14.666,14c-0.752-0.518,0.805-4.447,0-5
			c-5.645-3.882-9.893-9.166-14.666-14C238.18,387.074,236.514,390.388,237.365,391.25L237.365,391.25z"/>
	</g>
</g>
<g opacity="0.8">
	<g>
		<path fill="#231F20" d="M171.365,274c3.531,8.323,9.79,15.169,16.188,21.41c6.124,5.976,13.217,12.691,20.903,16.594
			c15.968,8.105,29.95-13.697,36.909-24.67c0.381-0.603-0.371-1.915,0-2.5c-7.293,11.499-19.461,30.664-35.709,25.176
			c-3.635-1.228-6.773-4.097-9.758-6.411c-3.896-3.024-7.625-6.261-11.23-9.625c-6.862-6.401-13.597-13.739-17.303-22.474
			C171.661,272.199,171.063,273.287,171.365,274L171.365,274z"/>
	</g>
</g>
<g opacity="0.8">
	<g>
		<path fill="#231F20" d="M190.031,340c8.122,0.837,19.173,5.695,26.668,0.666c0.168-0.112-0.072-2.503,0-2.5
			c-3.23-0.154-6.748-0.91-7.028-4.736c-0.001,0.818-0.003,1.637-0.003,2.456c0.16-1.22,0.488-2.112,1.031-3.22
			c0.103-0.21,0.128-2.434,0-2.5c-3.987-2.076-9.291-5.053-9.932-9.997c0.002,0.818,0.003,1.637,0.004,2.455
			c0.128-4.733,5.513-6.669,9.26-7.958c0.273-0.094-0.238-2.418,0-2.5c-5.094,1.753-9.291,3.869-9.275,9.585
			c0.016,5.45,5.682,8.695,9.943,10.915c0-0.833,0-1.667,0-2.5c-0.919,1.877-1.061,3.366-1.041,5.354
			c0.04,3.997,3.594,4.981,7.041,5.146c0-0.833,0-1.667,0-2.5c-7.495,5.029-18.546,0.171-26.668-0.666
			C190.098,337.507,189.928,339.989,190.031,340L190.031,340z"/>
	</g>
</g>
<g opacity="0.8">
	<g>
		<path fill="#231F20" d="M221.365,311.5c-7.61,2.761-14.036,10.103-12,18.5c-0.189-0.782,0.191-1.709,0-2.5
			c-0.691-2.853,1.814-5.928,3.594-7.912c2.25-2.509,5.252-4.443,8.406-5.588C221.648,313.897,221.114,311.591,221.365,311.5
			L221.365,311.5z"/>
	</g>
</g>
<g opacity="0.8">
	<g>
		<path fill="#231F20" d="M222.031,314c1.382,1.812,2.611,3.662,2.854,5.975c-0.002-0.711-0.006-1.423-0.008-2.134
			c-0.051,4.548-6.377,6.73-9.553,8.719c-3.254,2.036-4.668,4.415-4.646,8.157c0.09,15.288,16.256,0.55,22.688-1.383
			c0.246-0.074-0.213-2.437,0-2.5c-5.68,1.707-22.456,16.425-22.67,2.172c-0.002,0.776-0.004,1.553-0.006,2.329
			c0.571-6.19,8.607-7.71,12.48-11.357c3.607-3.397,1.291-9.293-1.139-12.478C222.426,312.018,221.623,313.464,222.031,314
			L222.031,314z"/>
	</g>
</g>
<g>
	<g>
		<g>
			<path fill="#231F20" d="M194.357,72.596c-13.15,0.263-18.673,8.595-22.921,19.975c-4.972,13.319-7.011,26.939-8.563,41.022
				c-1.212,10.998-1.59,22.292-3.542,33.178c-1.563,8.724-4.485,16.687-8.25,24.689c-1.737,3.694-3.581,7.338-5.346,11.02
				c-0.968,2.016-1.879,4.057-2.762,6.112c-0.914,2.126-1.234,1.807-2.617,0.504c0.202,0.191-0.213,1.051,0,1.25
				c2.801,2.637,3.574-2.731,4.652-5.074c1.696-3.688,3.537-7.311,5.308-10.963c3.876-7.992,7.003-15.996,8.721-24.727
				c2.237-11.377,2.588-23.216,3.836-34.738c1.477-13.632,3.466-26.832,8.106-39.77c4.233-11.805,9.666-20.954,23.377-21.227
				C194.375,73.846,194.357,72.596,194.357,72.596L194.357,72.596z"/>
		</g>
	</g>
	<g>
		<g>
			<path fill="#231F20" d="M156.536,178.652c-0.041,7.369-0.544,14.653,1.72,21.79c1.948,6.148,3.59,11.796,4.271,18.262
				c0.598,5.668,0.752,11.366,1.83,16.976c-0.077-0.399,0.077-0.846,0-1.25c-1.611-8.381-1.447-16.98-3.037-25.375
				c-0.85-4.488-2.826-8.573-3.958-12.969c-1.405-5.457-0.847-11.22-0.815-16.803C156.548,179.095,156.541,177.886,156.536,178.652
				L156.536,178.652z"/>
		</g>
	</g>
	<g>
		<g>
			<path fill="#231F20" d="M148.354,195.261c0.341,19.745,11.723,35.919,22.504,51.585c-0.191-0.277,0.197-0.963,0-1.25
				c-10.732-15.595-22.158-31.74-22.498-51.414C148.359,194.119,148.35,195.011,148.354,195.261L148.354,195.261z"/>
		</g>
	</g>
	<g>
		<g>
			<path fill="#231F20" d="M157.854,228.182c-0.202,12.426,3.198,24.002,7.699,35.5c5.119,13.075,17.195,32.726,7.305,45.914
				c-0.203,0.271,0.195,0.988,0,1.25c6.169-8.226,3.867-18.95,0.814-27.917c-6.009-17.646-16.125-34.458-15.813-53.668
				C157.864,229.012,157.855,228.119,157.854,228.182L157.854,228.182z"/>
		</g>
	</g>
	<g>
		<g>
			<path fill="#231F20" d="M195.857,61.596c-8.475-9.178-17.254-3.86-22.939,5.196c-2.717,4.329-4.443,9.174-5.428,14.164
				c-1.73,8.765-3.976,17.425-6.329,26.04c-4.313,15.786-8.77,31.443-12.478,47.39c-3.747,16.121-7.874,32.128-14.826,47.21
				c-0.16,0.347,0.156,0.91,0,1.25c6.695-14.527,10.766-29.905,14.411-45.428c3.883-16.533,8.37-32.807,12.893-49.172
				c2.212-8.003,4.227-16.057,5.948-24.18c1.135-5.354,2.549-10.167,5.202-14.992c2.32-4.219,5.534-8.175,9.855-10.423
				c5.184-2.697,10.172,0.385,13.69,4.195C195.654,62.626,196.068,61.826,195.857,61.596L195.857,61.596z"/>
		</g>
	</g>
	<g>
		<g>
			<path fill="#231F20" d="M188.357,56.596c-11.85-6.79-29.668-7.029-36.971,6.363c-4.695,8.609-6.484,19.163-8.947,28.56
				c-2.778,10.604-6.553,20.922-9.992,31.323c-6.416,19.404-12.227,39.387-12.578,59.974c-0.322,18.877,0.184,36.129-14.012,50.279
				c-0.213,0.213,0.203,1.048,0,1.25c11.43-11.393,13.891-25.549,13.992-41.089c0.073-11.243,0.59-22.183,2.68-33.253
				c2.076-10.991,5.334-21.741,8.762-32.374c3.373-10.463,7.221-20.795,10.208-31.378c2.931-10.385,5.112-20.938,9.358-30.906
				c6.244-14.661,25.614-14.31,37.5-7.5C188.185,57.748,188.543,56.703,188.357,56.596L188.357,56.596z"/>
		</g>
	</g>
	<g>
		<g>
			<path fill="#231F20" d="M153.857,58.596c-28.561,15.208-38.861,48.855-53.145,75.633c-9.711,18.205-14.06,38.219-22.201,57.081
				c-4.009,9.285-9.765,17.775-15.19,26.267c-4.802,7.516-10.631,15.318-10.966,24.543c-0.014,0.376,0.014,0.91,0.003,1.205
				c0.355-9.751,6.867-18.086,11.928-26.008c5.447-8.525,10.896-17.045,14.917-26.359c4.17-9.66,7.205-19.667,10.434-29.665
				c3.053-9.46,7.018-18.206,11.688-26.958c14.129-26.487,24.277-59.441,52.533-74.487C154.037,59.75,153.691,58.684,153.857,58.596
				L153.857,58.596z"/>
		</g>
	</g>
	<g>
		<g>
			<path fill="#231F20" d="M184.357,55.096c-16.008-1.138-24.625,18.081-29.563,30.313c-5.972,14.792-9.225,30.363-13.438,45.688
				c-3.837,13.953-9.719,27.784-10.784,42.347c-0.704,9.613,0.127,19.155,0.825,28.748c0.59,8.091,0.354,15.604-1.829,23.428
				c-1.848,6.617-4.278,13.022-5.526,19.802c-1.259,6.846-0.811,14.473,2.535,20.628c4,7.357,11.506,12.196,15.967,19.284
				c5.192,8.251,7.289,21.425,3.313,30.263c-0.158,0.35,0.154,0.907,0,1.25c2.627-5.841,2.365-12.614,1.416-18.82
				c-0.813-5.323-2.608-10.573-5.479-15.133c-3.229-5.131-8.125-9.097-12.053-13.663c-10.475-12.18-4.75-27.312-0.617-40.853
				c2.464-8.07,2.922-15.438,2.51-23.723c-0.469-9.418-1.623-18.713-1.192-28.172c0.388-8.521,2.707-16.896,5.139-25.021
				c2.878-9.615,5.84-19.148,8.281-28.884c4.224-16.837,8.69-34.151,17.31-49.358c4.838-8.536,12.402-17.639,23.186-16.872
				C184.337,56.345,184.396,55.099,184.357,55.096L184.357,55.096z"/>
		</g>
	</g>
	<g>
		<g>
			<path fill="#231F20" d="M122.854,260.681c-0.164,7.111,1.13,13.817,3.466,20.563c2.006,5.791,4.609,11.311,6.44,17.171
				c2.047,6.55,3.515,13.278,5.166,19.934c5.455,21.979,3.271,46.724-15.068,62.248c-0.211,0.179,0.199,1.081,0,1.25
				c13.27-11.232,18.426-28.398,18.137-45.335c-0.188-10.981-3.521-21.6-6.226-32.163c-3.61-14.102-12.251-27.721-11.909-42.587
				C122.865,261.511,122.855,260.618,122.854,260.681L122.854,260.681z"/>
		</g>
	</g>
	<g>
		<g>
			<path fill="#231F20" d="M147.857,308.346c1.848,14.575,8.134,28.353,0.44,42.411c-5.521,10.089-14.886,17.396-19.94,27.839
				c-0.166,0.341,0.161,0.916,0,1.25c6.976-14.412,22.201-23.865,24.06-40.684c1.196-10.824-3.216-21.468-4.56-32.066
				C147.908,307.504,147.805,307.935,147.857,308.346L147.857,308.346z"/>
		</g>
	</g>
	<g>
		<g>
			<path fill="#231F20" d="M142.857,203.846c1.746,10.314,0.434,20.833,2.123,31.162c1.705,10.424,4.994,20.559,8.914,30.337
				c3.756,9.37,8.598,18.194,11.982,27.745c3.715,10.479,5.856,21.445,5.976,32.573c0.005,0.473,0.011-0.734,0.009-0.885
				c-0.212-19.775-7.104-38.046-15.715-55.593c-4.887-9.961-8.211-20.916-10.442-31.761c-2.374-11.54-0.892-23.274-2.847-34.829
				C142.926,203,142.788,203.44,142.857,203.846L142.857,203.846z"/>
		</g>
	</g>
	<g>
		<g>
			<path fill="#231F20" d="M167.357,301.346c9.891,10.731,19.752,28.687,18,43.75c-0.951,8.165-7.674,14.917-11.76,21.677
				c-4.604,7.613-8.479,15.316-15.24,21.323c-0.213,0.188,0.201,1.071,0,1.25c8.328-7.398,12.514-17.603,18.683-26.631
				c4.356-6.373,8.539-12.394,8.562-20.371c0.041-15.068-8.191-31.341-18.244-42.248
				C167.561,300.316,167.145,301.116,167.357,301.346L167.357,301.346z"/>
		</g>
	</g>
	<g>
		<g>
			<path fill="#231F20" d="M171.857,307.846c2.813,6.947,1.795,14.624,2.329,21.952c0.572,7.845,2.937,15.315,4.171,23.048
				c2.406,15.086-8.696,27.915-12.5,41.75c-0.107,0.39,0.105,0.865,0,1.25c3.666-13.335,12.91-24.75,12.871-39.028
				c-0.021-7.202-2.353-14.161-3.676-21.183c-1.783-9.46,0.473-19.98-3.195-29.039C172,306.95,171.711,307.484,171.857,307.846
				L171.857,307.846z"/>
		</g>
	</g>
	<g>
		<g>
			<path fill="#231F20" d="M144.852,170.555c-0.026,12.619-0.691,25.121-2.994,37.541c-1.9,10.248-4,20.449-4.816,30.857
				c-0.886,11.301,0.671,21.901,5.454,32.292c3.522,7.651,7.804,14.866,10.394,22.925c3.258,10.142,3.354,20.957,3.464,31.493
				c0.206,19.708,6.611,39.191-0.495,58.433c-0.137,0.369,0.134,0.887,0,1.25c4.814-13.036,3.951-26.108,2.291-39.615
				c-1.165-9.485-1.58-18.845-1.867-28.383c-0.285-9.516-1.355-18.82-4.545-27.842c-3.076-8.704-8.268-16.525-11.639-25.118
				c-4.738-12.072-3.396-25.153-1.416-37.685c1.723-10.896,4.248-21.607,5.312-32.605c0.745-7.71,0.854-15.471,0.87-23.211
				C144.863,170.504,144.853,169.676,144.852,170.555L144.852,170.555z"/>
		</g>
	</g>
	<g>
		<g>
			<path fill="#231F20" d="M152.857,386.596c-4.513-11.707-8.129-24.283-4.5-36.75c0.111-0.387-0.111-0.868,0-1.25
				c-3.842,13.194-0.311,26.772,4.5,39.25C152.719,387.486,152.998,386.962,152.857,386.596L152.857,386.596z"/>
		</g>
	</g>
	<g>
		<g>
			<path fill="#231F20" d="M137.357,386.846c2.462-10.571,6.385-20.727,8-31.5c0.061-0.408-0.062-0.844,0-1.25
				c-1.615,10.773-5.538,20.929-8,31.5C137.265,385.993,137.448,386.453,137.357,386.846L137.357,386.846z"/>
		</g>
	</g>
	<g>
		<g>
			<path fill="#231F20" d="M122.357,250.596c-4.124,3.24-4.583,8.714-4.466,13.604c0.246,10.247,3.433,20.291,6.438,30.004
				c3.494,11.293,7.695,22.8,5.582,34.837c-1.114,6.347-4.908,11.207-10.28,14.506c-4.862,2.985-11.526,4.219-15.274-0.95
				c0.194,0.269-0.201,0.973,0,1.25c3.582,4.939,9.307,3.887,14.188,1.544c5.701-2.734,9.246-7.658,11.02-13.609
				c2.115-7.097,0.932-16.127-0.586-23.108c-2.078-9.56-5.796-18.765-8.267-28.233c-2.136-8.184-6.364-22.3,1.646-28.593
				C122.564,251.683,122.16,250.75,122.357,250.596L122.357,250.596z"/>
		</g>
	</g>
	<g>
		<g>
			<path fill="#231F20" d="M129.857,328.596c-2.775,13.016-2.987,26.915-13.5,36.5c-0.213,0.193,0.201,1.065,0,1.25
				c10.513-9.585,10.725-23.484,13.5-36.5C129.942,329.445,129.772,328.992,129.857,328.596L129.857,328.596z"/>
		</g>
	</g>
	<g>
		<g>
			<path fill="#231F20" d="M114.855,218.824c0.678,13.752-6.9,26.045-11.148,38.67c-2.334,6.939-3.185,14.105-2.35,21.352
				c1.299,11.287,8.343,21.3,18.188,26.75c10.24,5.67,22.541,4.666,32.813-0.25c0.17-0.081-0.154-1.176,0-1.25
				c-21.791,10.43-46.073-1.195-50.775-25.099c-2.682-13.632,4.787-26.731,9.445-39.03c2.741-7.238,4.211-14.633,3.831-22.348
				C114.873,217.912,114.837,218.447,114.855,218.824L114.855,218.824z"/>
		</g>
	</g>
	<g>
		<g>
			<path fill="#231F20" d="M139.857,87.596c-2.359,11.489-8.226,21.821-13.658,32.085c-5.867,11.083-10.649,22.702-15.631,34.205
				c-5.049,11.659-8.026,23.13-9.244,35.77c-1.27,13.19-2.874,25.356-7.818,37.752c-4.305,10.791-9.621,20.918-10.648,32.688
				c-0.438,5.006,0.061,10.217,1.084,15.098c4.124,19.679,21.27,32.868,38.916,40.152c-0.139-0.058,0.154-1.187,0-1.25
				c-15.973-6.593-30.516-17.377-37.037-33.884c-9.245-23.405,6.385-42.963,12.188-64.694c2.921-10.935,2.833-22.508,4.349-33.671
				c1.584-11.68,6.313-22.525,11.068-33.205c4.389-9.853,8.529-19.691,13.58-29.234c5.172-9.771,10.607-19.632,12.852-30.562
				C139.939,88.445,139.775,87.994,139.857,87.596L139.857,87.596z"/>
		</g>
	</g>
	<g>
		<g>
			<path fill="#231F20" d="M123.357,309.846c2.434,14.431-15.391,21.723-26.5,15.75c0.166,0.09-0.182,1.152,0,1.25
				c13.301,7.15,28.991-3.479,26.5-18.25C123.425,308.999,123.289,309.439,123.357,309.846L123.357,309.846z"/>
		</g>
	</g>
	<g>
		<g>
			<path fill="#231F20" d="M195.357,73.846c6.198-0.108,12.452-1.581,18.543,0.103c6.414,1.773,10.609,8.047,13.449,13.63
				c3.043,5.986,4,12.503,4.961,19.056c0.984,6.693,2.84,13.233,5.258,19.541c8.266,21.568,25.256,38.333,44.574,50.333
				c-0.18-0.112,0.193-1.13,0-1.25c-19.541-12.136-35.891-28.758-44.574-50.333c-5.037-12.512-4.564-26.398-10.219-38.597
				c-2.771-5.979-7.168-11.303-13.449-13.63c-5.723-2.12-12.637-0.206-18.543-0.103C195.34,72.597,195.355,73.846,195.357,73.846
				L195.357,73.846z"/>
		</g>
	</g>
	<g>
		<g>
			<path fill="#231F20" d="M228.857,92.346c12.545,18.93,22.441,39.572,36.313,57.625c14.152,18.422,32.877,31.236,56.188,34.375
				c-0.047-0.006,0.064-1.241,0-1.25c-23.457-3.159-41.834-16.018-56.188-34.375c-14.012-17.918-23.781-38.717-36.313-57.625
				C229.045,91.381,228.662,92.052,228.857,92.346L228.857,92.346z"/>
		</g>
	</g>
	<g>
		<g>
			<path fill="#231F20" d="M198.857,61.846c16.641-2.352,37.43-10.212,51.018,3.954c4.746,4.949,7.299,11.799,9.666,18.098
				c3.607,9.6,6.729,19.374,10.098,29.057c3.338,9.599,7.496,18.845,11.008,28.37c3.482,9.444,6.375,19.078,11.193,27.964
				c8.988,16.577,26.525,27.984,43.018,36.056c-0.158-0.076,0.172-1.165,0-1.25c-16.793-8.219-33.51-19.528-43.018-36.056
				c-4.725-8.211-7.463-17.486-10.615-26.365c-3.586-10.096-8.029-19.851-11.586-29.969c-3.258-9.264-6.262-18.612-9.645-27.832
				c-2.518-6.862-5.23-13.771-10.119-19.323c-12.801-14.537-35.014-6.216-51.018-3.954C198.79,60.605,198.905,61.839,198.857,61.846
				L198.857,61.846z"/>
		</g>
	</g>
	<g>
		<g>
			<path fill="#231F20" d="M260.357,83.846c21.117,11.671,25.023,38.577,33.414,59.004c5.389,13.122,14.297,24.391,22.969,35.476
				c4.775,6.103,9.053,12.024,12.609,18.923c3.18,6.169,6.184,12.51,11.008,17.597c-0.203-0.215,0.213-1.025,0-1.25
				c-4.461-4.704-7.373-10.487-10.299-16.21c-3.502-6.851-7.471-12.836-12.211-18.895c-9.072-11.597-18.303-23.233-24.076-36.891
				c-8.637-20.43-12.156-47.256-33.414-59.004C260.525,82.689,260.174,83.745,260.357,83.846L260.357,83.846z"/>
		</g>
	</g>
	<g>
		<g>
			<path fill="#231F20" d="M199.857,53.346c14.594-6.195,30.49-7.5,45.832-3.405c16.504,4.406,28.756,15.658,39.135,28.708
				c5.324,6.693,10.27,13.67,15.811,20.189c5.33,6.27,11.836,11.399,17.84,16.989c13.975,13.01,20.166,30.396,20.377,49.336
				c0.006,0.473,0.012-0.734,0.01-0.884c-0.188-16.674-4.768-33.071-16.205-45.535c-5.416-5.904-11.832-10.837-17.582-16.404
				c-6.451-6.246-11.666-13.752-17.092-20.869c-10.674-13.996-22.396-26.076-39.406-31.902c-15.861-5.432-33.435-3.962-48.719,2.527
				C199.699,52.163,199.998,53.286,199.857,53.346L199.857,53.346z"/>
		</g>
	</g>
	<g>
		<g>
			<path fill="#231F20" d="M298.357,92.846c1.428,6.725,6.115,11.724,10.621,16.646c5.584,6.098,9.225,12.792,12.414,20.407
				c3.186,7.608,5.773,15.324,9.473,22.727c3.928,7.862,8.42,15.433,12.492,23.22c3.711,7.097,4.996,14.874,5.803,22.758
				c0.879,8.594,1.674,17.038,3.248,25.546c1.928,10.431,2.695,20.274-0.555,30.533c-2.58,8.144-7.805,15.382-12.496,22.412
				c-0.195,0.292,0.189,0.966,0,1.25c8.213-12.306,15.197-24.273,15.047-39.469c-0.078-7.754-1.957-15.406-3.264-23.012
				c-1.627-9.471-1.609-19.131-3.395-28.584c-1.736-9.187-6.713-17.12-11.164-25.194c-4.82-8.742-9.383-17.564-12.725-26.991
				c-2.916-8.227-6.338-16.924-12.012-23.657c-5.193-6.162-11.74-11.605-13.488-19.843
				C298.441,91.993,298.271,92.446,298.357,92.846L298.357,92.846z"/>
		</g>
	</g>
	<g>
		<g>
			<path fill="#231F20" d="M314.857,132.346c8.088,7.984,12.322,19.884,16.092,30.355c2.258,6.271,4.223,12.543,5.275,19.139
				c1.221,7.653,1.58,15.398,3.133,23.005c-0.082-0.397,0.082-0.848,0-1.25c-1.432-7.016-1.963-14.149-2.881-21.24
				c-0.879-6.793-2.848-13.177-5.076-19.625c-3.758-10.871-8.186-23.384-16.543-31.635
				C315.061,131.297,314.645,132.136,314.857,132.346L314.857,132.346z"/>
		</g>
	</g>
	<g>
		<g>
			<path fill="#231F20" d="M276.357,164.846c17.219,25.431-0.342,54.067-6,80.25c-0.086,0.4,0.086,0.854,0,1.25
				c5.816-26.917,23.719-56.581,6-82.75C276.547,163.877,276.16,164.556,276.357,164.846L276.357,164.846z"/>
		</g>
	</g>
	<g>
		<g>
			<path fill="#231F20" d="M282.355,197.824c0.838,19.968,10.693,39.149,21.502,55.522c-0.189-0.285,0.193-0.955,0-1.25
				c-10.795-16.354-20.66-35.531-21.498-55.477C282.371,196.913,282.34,197.447,282.355,197.824L282.355,197.824z"/>
		</g>
	</g>
	<g>
		<g>
			<path fill="#231F20" d="M277.852,218.163c0.074,8.997,2.475,19.364-1.348,27.71c-2.271,4.959-5.199,9.602-7.518,14.545
				c-5.404,11.531-7.541,23.914-6.965,36.571c-0.012-0.294,0.021-0.829,0.004-1.205c-0.764-16.769,5.016-30.953,12.783-45.347
				c5.482-10.156,3.145-22.037,3.053-33.158C277.857,216.807,277.852,218.014,277.852,218.163L277.852,218.163z"/>
		</g>
	</g>
	<g>
		<g>
			<path fill="#231F20" d="M280.857,239.846c3.422,10.814,1.342,22.084-0.938,32.908c-1.721,8.182-3.295,16.365-5.484,24.438
				c-2.658,9.813-5.963,21.062-2.578,31.154c-0.125-0.371,0.127-0.873,0-1.25c-2.969-8.853-0.137-18.499,2.186-27.194
				c2.148-8.051,3.77-16.146,5.531-24.287c2.607-12.037,5.104-24.949,1.283-37.019C280.977,238.973,280.736,239.465,280.857,239.846
				L280.857,239.846z"/>
		</g>
	</g>
	<g>
		<g>
			<path fill="#231F20" d="M294.357,236.346c6.867,4.164,6.738,15.996,6.463,22.744c-0.406,9.904-3.678,19.045-7.463,28.131
				c-4.338,10.412-9.039,20.927-15.367,30.289c-6.314,9.344-13.467,17.978-17.633,28.586c-0.143,0.364,0.141,0.893,0,1.25
				c4.939-12.577,14.09-22.553,21.092-33.937c3.537-5.75,6.146-12.134,8.961-18.257c3.301-7.176,6.262-14.495,8.479-22.082
				c1.736-5.944,2.057-12.181,2.02-18.341c-0.037-6.375-0.436-15.925-6.551-19.634C294.535,235.204,294.166,236.23,294.357,236.346
				L294.357,236.346z"/>
		</g>
	</g>
	<g>
		<g>
			<path fill="#231F20" d="M281.357,311.096c-3.518,20.472-7.332,40.877-6.002,61.728c-0.02-0.293,0.027-0.829,0.004-1.205
				c-1.279-20.048,2.625-39.632,5.998-59.272C281.426,311.939,281.287,311.499,281.357,311.096L281.357,311.096z"/>
		</g>
	</g>
	<g>
		<g>
			<path fill="#231F20" d="M290.857,372.096c-10.092-10.414-3.156-29.979,3.23-40.726c5.078-8.55,11.592-16.214,17.953-23.818
				c6.031-7.208,12.355-14.111,15.813-22.981c2.744-7.038,3.248-14.777,3.447-22.251c0.25-9.347,0.561-18.685,0.846-28.03
				c0.398-13.116-0.822-26.673-10.289-36.693c0.203,0.215-0.213,1.025,0,1.25c14.344,15.181,9.623,37.066,9.494,56.059
				c-0.07,10.188-0.301,20.212-4.039,29.807c-3.42,8.771-10.457,15.835-16.4,22.939c-10.254,12.256-20.445,24.652-23.836,40.612
				c-1.689,7.962-2.277,18.83,3.781,25.082C290.654,373.136,291.07,372.315,290.857,372.096L290.857,372.096z"/>
		</g>
	</g>
	<g>
		<g>
			<path fill="#231F20" d="M332.357,259.346c5.303,9.439,3.115,21.453,2.023,31.71c-0.549,5.15-1.105,10.305-1.055,15.491
				c0.154,15.433,5.938,34.512,18.531,44.299c-0.197-0.152,0.207-1.089,0-1.25c-15.223-11.829-19.66-35.004-17.918-53.06
				c1.125-11.67,4.57-27.489-1.582-38.44C332.533,258.408,332.178,259.025,332.357,259.346L332.357,259.346z"/>
		</g>
	</g>
	<g>
		<g>
			<path fill="#231F20" d="M323.857,290.096c-2.191,10.523-1.307,21.262,2.969,31.193c4.619,10.727,9.969,26.636,21.531,31.557
				c-0.143-0.061,0.158-1.183,0-1.25c-8.66-3.686-12.902-13.033-16.584-21.1c-2.068-4.53-4.443-8.976-6.236-13.616
				c-3.139-8.118-3.439-17.08-1.68-25.534C323.941,290.944,323.773,290.493,323.857,290.096L323.857,290.096z"/>
		</g>
	</g>
	<g>
		<g>
			<path fill="#231F20" d="M277.357,373.096c-8.057-15.08,2.102-32.861,9.473-46.146c3.887-7.005,8.064-13.852,11.643-21.023
				c4.025-8.065,6.236-16.969,8.633-25.616c4.139-14.938,6.52-30.215,4.867-45.683c-2.523-23.646-17.229-43.546-26.115-65.031
				c0.145,0.352-0.148,0.891,0,1.25c8.732,21.112,22.453,40.289,25.891,63.276c1.996,13.345-0.104,26.782-3.283,39.754
				c-2.281,9.302-4.717,18.995-8.572,27.787c-6.482,14.782-16.389,27.783-22.201,42.918c-3.625,9.445-5.295,20.48-0.334,29.765
				C277.186,374.025,277.531,373.424,277.357,373.096L277.357,373.096z"/>
		</g>
	</g>
	<g>
		<g>
			<path fill="#231F20" d="M269.857,316.346c2.877-20.688,5.516-41.611,10.26-61.972c3.057-13.117,7.037-26.237,4.74-39.778
				c0.068,0.404-0.07,0.844,0,1.25c2.787,16.428-4.205,33.584-7.236,49.6c-3.113,16.462-5.457,33.061-7.764,49.65
				C269.801,315.506,269.914,315.938,269.857,316.346L269.857,316.346z"/>
		</g>
	</g>
	<g>
		<g>
			<path fill="#231F20" d="M240.857,58.346c26.955,4.411,39.152,32.484,50.088,54.231c7.971,15.849,17.477,30.952,26.412,46.269
				c4.748,8.139,8.51,16.693,11.887,25.478c3.346,8.708,7.168,17.517,9.613,26.522c-0.105-0.385,0.105-0.859,0-1.25
				c-2.299-8.471-5.916-16.689-9-24.903c-3.289-8.759-6.965-17.321-11.559-25.481c-8.818-15.659-18.664-30.775-26.809-46.806
				c-11.178-22-23.207-50.822-50.633-55.31C240.914,57.105,240.781,58.334,240.857,58.346L240.857,58.346z"/>
		</g>
	</g>
	<g>
		<g>
			<path fill="#231F20" d="M339.357,209.846c6.301,11.385,15.299,21.814,12,35.75c-2.896,12.237-13.018,21.416-16.5,33.5
				c-0.111,0.387,0.109,0.868,0,1.25c4.02-13.946,17.295-24.927,17.447-40.043c0.121-12.23-7.279-21.466-12.947-31.707
				C339.531,208.911,339.178,209.523,339.357,209.846L339.357,209.846z"/>
		</g>
	</g>
	<g>
		<g>
			<path fill="#231F20" d="M355.857,377.596c-3.941-5.71-7.027-11.926-10.855-17.702c-4.252-6.417-10.125-10.775-17.145-13.798
				c-8.748-3.767-24.99-7.467-25.502,6.522c-0.014,0.376,0.014,0.911,0.004,1.205c0.543-14.876,18.242-9.602,27-5.83
				c13.807,5.944,18.525,19.303,26.498,30.853C355.666,378.568,356.055,377.882,355.857,377.596L355.857,377.596z"/>
		</g>
	</g>
	<g>
		<g>
			<path fill="#231F20" d="M335.857,338.096c-7.238-7.147-19.602-7.537-29.133-7.061c-5.041,0.253-10.189,1.022-13.844,4.802
				c-3.236,3.347-4.359,8.732-6.523,12.759c-0.176,0.327,0.172,0.931,0,1.25c2.107-3.92,3.34-8.322,5.895-11.988
				c2.98-4.277,8.516-5.081,13.313-5.493c9.734-0.838,22.904-0.316,30.293,6.981C335.654,339.145,336.07,338.306,335.857,338.096
				L335.857,338.096z"/>
		</g>
	</g>
	<g>
		<g>
			<path fill="#231F20" d="M363.357,376.596c-6.977-3.256-13.936-6.539-20.77-10.086c-5-2.594-8.238-5.528-14.1-4.342
				c-6.396,1.295-11.076,4.763-16.631,7.928c-6.113,3.482-14.688,3.539-21.5,4c-0.037,0.003,0.018,1.249,0,1.25
				c6.785-0.459,13.426-1.086,19.885-3.351c5.963-2.092,10.236-6.806,16.615-8.149c6.078-1.281,8.744-0.119,14,3
				c7.133,4.234,14.992,7.495,22.5,11C363.205,377.774,363.523,376.674,363.357,376.596L363.357,376.596z"/>
		</g>
	</g>
	<g>
		<g>
			<path fill="#231F20" d="M352.857,355.596c-11.17-1.343-22.818-1.848-33.539,2.111c-10.877,4.017-15.291,16.018-23.961,22.889
				c-0.209,0.165,0.197,1.094,0,1.25c8.393-6.651,12.646-17.58,22.602-22.318c10.557-5.022,23.648-4.034,34.898-2.682
				C352.816,356.841,352.916,355.603,352.857,355.596L352.857,355.596z"/>
		</g>
	</g>
	<g>
		<g>
			<path fill="#231F20" d="M371.357,394.596c-17.205-2.123-35.135-5.206-49.584,6.721c-3.102,2.561-5.521,5.485-8.994,7.611
				c-3.719,2.275-7.998,3.576-12.234,4.457c-7.895,1.642-16.717,0.97-23.688-3.289c0.178,0.109-0.193,1.133,0,1.25
				c6.736,4.114,14.697,4.626,22.355,3.523c8.723-1.256,15.205-5.325,21.412-11.279c13.906-13.337,33.449-9.877,50.732-7.744
				C371.316,395.841,371.416,394.604,371.357,394.596L371.357,394.596z"/>
		</g>
	</g>
	<g>
		<g>
			<path fill="#231F20" d="M364.855,408.118c-0.779,11.712,6.203,18.859,17.143,22.179c6.908,2.096,14.342,2.509,21.518,2.374
				c1.887-0.035,5.916,0.604,5.938-1.601c0.012-1.035-0.264-1.429-0.596-2.475c0.119,0.376-0.121,0.869,0,1.25
				c0.107,0.507,0.305,0.977,0.592,1.407c0-0.416,0-0.833,0-1.25c-0.352,4.158-23.996,0.005-27.451-0.956
				c-9.313-2.59-17.844-9.146-17.139-19.724C364.883,408.948,364.836,408.411,364.855,408.118L364.855,408.118z"/>
		</g>
	</g>
	<g>
		<g>
			<path fill="#231F20" d="M372.857,397.346c6.439-13.164,29.965-8.876,40.549-3.993c3.42,1.577,15.09,7.822,15.137-0.11
				c0.029-5.181-5.063-8.67-8.686-11.646c0.197,0.163-0.211,1.077,0,1.25c3.389,2.784,8.105,6.013,8.68,10.706
				c0-0.416,0-0.833,0-1.25c-0.6,6.43-8.488,2.661-11.971,1.209c-4.717-1.966-8.748-3.854-13.818-4.754
				c-9.352-1.66-24.873-2.921-29.891,7.339C372.691,396.436,373.02,397.014,372.857,397.346L372.857,397.346z"/>
		</g>
	</g>
	<g>
		<g>
			<path fill="#231F20" d="M376.357,386.346c6.752-8.899,24.266-12.433,24.039-25.624c-0.25-14.706-22.668-19.437-34.039-20.126
				c0.016,0.001-0.035,1.248,0,1.25c11.02,0.668,26.668,4.161,32.662,14.472c7.52,12.933-16.84,21.103-22.662,28.778
				C376.152,385.364,376.555,386.086,376.357,386.346L376.357,386.346z"/>
		</g>
	</g>
	<g>
		<g>
			<path fill="#231F20" d="M363.857,373.596c-5.561-13.764,4.572-21.729,10.072-33.033c2.578-5.3,2.785-11.493-2.072-15.467
				c0.197,0.162-0.211,1.078,0,1.25c10.088,8.251-3.814,20.938-7.719,28.898c-3.088,6.294-2.855,13.233-0.281,19.602
				C363.713,374.491,364.002,373.957,363.857,373.596L363.857,373.596z"/>
		</g>
	</g>
	<g>
		<g>
			<path fill="#231F20" d="M364.357,349.096c-5.061-5.742-8.074-12.734-11.639-19.425c-3.896-7.318-9.951-13.222-12.861-21.075
				c0.135,0.363-0.137,0.881,0,1.25c2.721,7.343,8.178,12.957,12.068,19.644c4.104,7.049,6.973,14.663,12.432,20.856
				C364.154,350.116,364.568,349.335,364.357,349.096L364.357,349.096z"/>
		</g>
	</g>
	<g>
		<g>
			<path fill="#231F20" d="M376.857,324.596c-15.133-3.69-27.594-14.341-40.5-22.5c0.182,0.114-0.195,1.127,0,1.25
				c12.906,8.159,25.367,18.81,40.5,22.5C376.77,325.824,376.961,324.621,376.857,324.596L376.857,324.596z"/>
		</g>
	</g>
	<g>
		<g>
			<path fill="#231F20" d="M373.357,306.596c-6.598-1.464-12.709-6.156-18-10.125c-5.51-4.133-11.809-9.113-15-15.375
				c0.166,0.327-0.172,0.916,0,1.25c3.213,6.306,9.508,11.154,15,15.375c5.215,4.008,11.447,8.671,18,10.125
				C373.277,307.828,373.453,306.617,373.357,306.596L373.357,306.596z"/>
		</g>
	</g>
	<g>
		<g>
			<path fill="#231F20" d="M370.857,296.096c-8.445-14.615-20.719-27.264-23.5-44.5c0.064,0.404-0.066,0.844,0,1.25
				c2.781,17.236,15.055,29.885,23.5,44.5C370.68,297.038,371.039,296.412,370.857,296.096L370.857,296.096z"/>
		</g>
	</g>
	<g>
		<g>
			<path fill="#231F20" d="M367.357,291.846c1.232-7.08,4.578-14.133,4.588-21.376c0.01-7.946-4.666-12.433-11.588-15.874
				c0.158,0.079-0.174,1.164,0,1.25c6.488,3.226,12.213,7.821,11.436,15.772c-0.629,6.438-3.326,12.607-4.436,18.978
				C367.287,291.002,367.428,291.443,367.357,291.846L367.357,291.846z"/>
		</g>
	</g>
	<g>
		<g>
			<path fill="#231F20" d="M382.357,291.346c4.443-13.201,5.811-27.85-6-37.75c0.199,0.167-0.211,1.073,0,1.25
				c11.047,9.26,10.283,22.528,6,35.25C382.23,290.473,382.482,290.975,382.357,291.346L382.357,291.346z"/>
		</g>
	</g>
	<g>
		<g>
			<path fill="#231F20" d="M381.857,297.846c8.734-12.318,14.379-28.072,11.5-43.25c0.076,0.4-0.076,0.847,0,1.25
				c2.699,14.232-3.367,29.282-11.5,40.75C381.658,296.877,382.051,297.573,381.857,297.846L381.857,297.846z"/>
		</g>
	</g>
	<g>
		<g>
			<path fill="#231F20" d="M369.857,313.346c12.15-7.05,54.379-16.559,40.5-38.25c0.186,0.291-0.191,0.95,0,1.25
				c12.543,19.603-29.506,29.371-40.5,35.75C369.67,312.205,370.031,313.245,369.857,313.346L369.857,313.346z"/>
		</g>
	</g>
	<g>
		<g>
			<path fill="#231F20" d="M368.357,315.346c4.617-7.402,13.42-11.523,21.387-14.239c8.342-2.844,18.811-4.6,27.113-0.761
				c-0.15-0.069,0.166-1.173,0-1.25c-8.045-3.72-17.715-2.046-25.885,0.37c-8.354,2.47-17.848,6.987-22.615,14.63
				C368.168,314.399,368.541,315.05,368.357,315.346L368.357,315.346z"/>
		</g>
	</g>
	<g>
		<g>
			<path fill="#231F20" d="M400.857,319.846c6.377-0.107,13.719-2.067,19.5,1.5c-0.18-0.11,0.193-1.131,0-1.25
				c-5.781-3.567-13.123-1.607-19.5-1.5C400.84,318.596,400.855,319.846,400.857,319.846L400.857,319.846z"/>
		</g>
	</g>
	<g>
		<g>
			<path fill="#231F20" d="M388.857,324.846c9.912,6.479,15.6,15.183,21,25.5c-0.17-0.323,0.172-0.919,0-1.25
				c-5.4-10.317-11.088-19.021-21-25.5C389.041,323.716,388.66,324.717,388.857,324.846L388.857,324.846z"/>
		</g>
	</g>
	<g>
		<g>
			<path fill="#231F20" d="M392.857,336.846c9.84,10.725,19.176,20.54,23,35c-0.104-0.387,0.104-0.858,0-1.25
				c-3.824-14.46-13.16-24.275-23-35C393.061,335.817,392.645,336.615,392.857,336.846L392.857,336.846z"/>
		</g>
	</g>
	<g>
		<g>
			<path fill="#231F20" d="M407.857,328.846c5.18-0.782,9.893,1.8,15,2c-0.008,0,0.025-1.249,0-1.25c-5.107-0.2-9.82-2.782-15-2
				C407.787,327.606,407.908,328.838,407.857,328.846L407.857,328.846z"/>
		</g>
	</g>
	<g>
		<g>
			<path fill="#231F20" d="M403.357,303.346c5.684-0.033,11.361-0.413,17,0.5c-0.057-0.009,0.074-1.238,0-1.25
				c-5.639-0.913-11.316-0.533-17-0.5C403.346,302.096,403.35,303.346,403.357,303.346L403.357,303.346z"/>
		</g>
	</g>
	<g>
		<g>
			<path fill="#231F20" d="M383.357,320.346c3.609,3.904,8.889,5.596,12.5,9.5c0-0.417,0-0.833,0-1.25
				c-1.199,1.105-2.479,1.911-4,2.5c-0.148,0.058,0.131,1.199,0,1.25c1.521-0.589,2.801-1.395,4-2.5c0.068-0.063,0.066-1.177,0-1.25
				c-3.611-3.904-8.891-5.596-12.5-9.5C383.561,319.315,383.145,320.116,383.357,320.346L383.357,320.346z"/>
		</g>
	</g>
	<g>
		<g>
			<path fill="#231F20" d="M361.857,333.346c1.715,2.813,3.695,5.636,6,8c-0.203-0.209,0.213-1.031,0-1.25
				c-2.305-2.364-4.285-5.188-6-8C362.039,332.396,361.67,333.038,361.857,333.346L361.857,333.346z"/>
		</g>
	</g>
	<g>
		<g>
			<path fill="#231F20" d="M365.357,302.596c-5.857-3.923-11.615-7.964-18-11c0.152,0.073-0.17,1.17,0,1.25
				c6.385,3.036,12.143,7.077,18,11C365.172,303.721,365.557,302.729,365.357,302.596L365.357,302.596z"/>
		</g>
	</g>
	<g>
		<g>
			<path fill="#231F20" d="M409.357,352.846c7.357,8.132,16.451,14.505,21.5,24.5c0-0.417,0-0.833,0-1.25
				c-2.275,1.033-4.5,1.785-7,2c-0.045,0.004,0.025,1.248,0,1.25c2.5-0.215,4.725-0.967,7-2c0.055-0.025,0.051-1.148,0-1.25
				c-5.049-9.995-14.143-16.368-21.5-24.5C409.561,351.82,409.145,352.612,409.357,352.846L409.357,352.846z"/>
		</g>
	</g>
	<g>
		<g>
			<path fill="#231F20" d="M405.357,382.346c6.83-0.466,15.518,0.392,21-4.5c0.063-0.056,0.061-1.201,0-1.25
				c-1.092-0.874-2.238-1.417-3.5-2c0.15,0.069-0.166,1.173,0,1.25c1.262,0.583,2.408,1.126,3.5,2c0-0.417,0-0.833,0-1.25
				c-5.482,4.892-14.17,4.034-21,4.5C405.318,381.099,405.375,382.345,405.357,382.346L405.357,382.346z"/>
		</g>
	</g>
	<g>
		<g>
			<path fill="#231F20" d="M379.857,364.846c7.033,4.751,20,9.511,20.498,19.478c-0.016-0.294,0.021-0.829,0.004-1.205
				c-0.5-10.005-13.436-14.749-20.502-19.522C380.043,363.722,379.658,364.711,379.857,364.846L379.857,364.846z"/>
		</g>
	</g>
	<g>
		<g>
			<path fill="#231F20" d="M390.357,407.846c6.389,2.627,13.822,8.173,20.5,3.5c4.014-2.809,4.42-9.635,4.502-14.085
				c0.006-0.25-0.004-1.143-0.006-1.08c-0.111,5.906-1.111,12.635-6.994,15.362c-5.527,2.563-13.117-2.938-18.002-4.947
				C390.496,406.652,390.203,407.782,390.357,407.846L390.357,407.846z"/>
		</g>
	</g>
	<g>
		<g>
			<path fill="#231F20" d="M391.859,426.823c1.008-14.752,12.99-25.768,15.998-39.978c0.084-0.4-0.084-0.854,0-1.25
				c-3.01,14.226-14.992,25.254-16.002,40.022C391.83,425.993,391.879,426.53,391.859,426.823L391.859,426.823z"/>
		</g>
	</g>
	<g>
		<g>
			<path fill="#231F20" d="M376.357,418.346c11.482-8.377,22.104-20.224,21.502-35.228c0.012,0.294-0.02,0.829-0.004,1.205
				c0.547,13.627-11.367,25.382-21.498,32.772C376.152,417.245,376.549,418.205,376.357,418.346L376.357,418.346z"/>
		</g>
	</g>
	<g>
		<g>
			<path fill="#231F20" d="M383.859,386.618c-0.293-6.869,1.793-13.6,1.5-20.5c0.012,0.294-0.02,0.829-0.004,1.205
				c0.291,6.869-1.793,13.6-1.5,20.5C383.844,387.529,383.875,386.994,383.859,386.618L383.859,386.618z"/>
		</g>
	</g>
	<g>
		<g>
			<path fill="#231F20" d="M357.857,416.096c-8.373-2.995-18.318-4.478-26,1c-0.203,0.145,0.189,1.114,0,1.25
				c7.682-5.478,17.627-3.995,26-1C357.732,417.302,357.998,416.146,357.857,416.096L357.857,416.096z"/>
		</g>
	</g>
	<g>
		<g>
			<path fill="#231F20" d="M402.857,423.346c6.621-0.928,13.658,0.541,20-2c0.152-0.061-0.137-1.195,0-1.25
				c-6.342,2.541-13.379,1.072-20,2C402.791,422.105,402.904,423.339,402.857,423.346L402.857,423.346z"/>
		</g>
	</g>
	<g>
		<g>
			<path fill="#231F20" d="M412.357,409.346c0.631-4.218-0.551-7.822-2.563-11.625c-2.32-4.385-5.367-8.229-7.406-12.778
				c-2.928-6.529-3.945-13.558-4.027-20.664c-0.006-0.473-0.01,0.734-0.01,0.885c0.084,7.321,1.232,14.226,4.037,21.029
				c2.781,6.751,11.135,14.095,9.969,21.903C412.295,408.505,412.418,408.939,412.357,409.346L412.357,409.346z"/>
		</g>
	</g>
	<g>
		<g>
			<path fill="#231F20" d="M366.857,337.596c-8.682-15.09,4.492-37.069-8.5-50.5c0.203,0.21-0.213,1.03,0,1.25
				c12.982,13.42-0.406,35.02,8.5,50.5C366.68,338.537,367.039,337.913,366.857,337.596L366.857,337.596z"/>
		</g>
	</g>
	<g>
		<g>
			<path fill="#231F20" d="M354.357,305.096c-3.076-5.588-6.545-10.895-11.5-15c0.199,0.165-0.211,1.076,0,1.25
				c4.955,4.105,8.424,9.412,11.5,15C354.184,306.03,354.535,305.419,354.357,305.096L354.357,305.096z"/>
		</g>
	</g>
	<g>
		<g>
			<path fill="#231F20" d="M362.357,285.596c-6.93-9.652-13.898-20.583-26-24c0.1,0.028-0.117,1.217,0,1.25
				c12.102,3.417,19.07,14.348,26,24C362.162,286.575,362.557,285.875,362.357,285.596L362.357,285.596z"/>
		</g>
	</g>
	<g>
		<g>
			<path fill="#231F20" d="M381.357,272.096c-0.75-4.799-1.414-9.852-4.125-14c-2.736-4.185-7.932-6.252-12.375-8
				c0.133,0.053-0.15,1.191,0,1.25c4.633,1.822,9.35,3.873,12.375,8c2.861,3.903,3.402,9.376,4.125,14
				C381.293,272.94,381.42,272.504,381.357,272.096L381.357,272.096z"/>
		</g>
	</g>
	<g>
		<g>
			<path fill="#231F20" d="M113.353,343.778c-0.077,8.724-2.544,22.57,6.005,28.067c-0.184-0.117,0.195-1.124,0-1.25
				c-8.249-5.304-6.07-17.67-5.996-25.933C113.363,344.513,113.357,343.306,113.353,343.778L113.353,343.778z"/>
		</g>
	</g>
	<g>
		<g>
			<path fill="#231F20" d="M94.357,362.346c6.67,12.537,16.149,23.577,29,30c-0.16-0.079,0.174-1.163,0-1.25
				c-12.851-6.423-22.33-17.463-29-30C94.527,361.416,94.182,362.018,94.357,362.346L94.357,362.346z"/>
		</g>
	</g>
	<g>
		<g>
			<path fill="#231F20" d="M99.857,388.846c9.125,8.941,16.22,22.838,15.996,35.835c-0.004,0.25,0.006,1.143,0.006,1.08
				c0.243-14.091-5.957-28.322-16.002-38.165C100.061,387.795,99.645,388.637,99.857,388.846L99.857,388.846z"/>
		</g>
	</g>
	<g>
		<g>
			<path fill="#231F20" d="M113.857,426.846c17.045,1.486,17.11-23.638,14.5-35.25c0.088,0.395-0.09,0.852,0,1.25
				c2.453,10.91,1.852,34.176-14.5,32.75C113.884,425.598,113.812,426.842,113.857,426.846L113.857,426.846z"/>
		</g>
	</g>
	<g>
		<g>
			<path fill="#231F20" d="M83.857,352.096c-3.339,7.573-6.436,15.752-6.458,24.138c-0.007,2.476,0.204,4.833,0.922,7.22
				c0.708,2.356,2.247,4.251,4.122,5.778c1.957,1.595,2.789-5.165,2.915-6.908c0.027-0.375-0.024-0.912-0.003-1.205
				c-0.198,2.738-0.885,5.016-1.998,7.478c-0.154,0.34-3.491-3.295-3.727-3.631c-2.511-3.584-2.385-8.528-1.836-12.619
				c0.881-6.58,3.4-12.962,6.063-19C84.012,352.993,83.705,352.44,83.857,352.096L83.857,352.096z"/>
		</g>
	</g>
	<g>
		<g>
			<path fill="#231F20" d="M86.355,332.618c-0.143,3.632-0.041,7.196,0.428,10.812c0.544,4.183,1.889,8.204,3.704,11.993
				c0.685,1.429,1.991,5.537,2.722,2.423c0.17-0.729,0.144-2.453,0.152-3.183c0.002-0.15-0.003-1.357-0.009-0.885
				c0.093,1.476-0.072,2.915-0.495,4.317c-0.592-0.828-1.139-1.685-1.642-2.569c-1.069-1.771-1.831-3.715-2.554-5.645
				c-1.894-5.053-2.512-10.71-2.304-16.059C86.373,333.447,86.344,332.912,86.355,332.618L86.355,332.618z"/>
		</g>
	</g>
	<g>
		<g>
			<path fill="#231F20" d="M92.857,310.096c-2.156,5.411-17.857,32.079-23.5,19c0.15,0.348-0.153,0.896,0,1.25
				c5.644,13.079,21.344-13.589,23.5-19C93.002,310.983,92.715,310.452,92.857,310.096L92.857,310.096z"/>
		</g>
	</g>
	<g>
		<g>
			<path fill="#231F20" d="M81.857,306.596c-0.844,4.813-3.188,8.973-5.643,13.134c-1.248,2.113-2.507,4.213-3.668,6.376
				c-0.427,0.815-0.824,1.646-1.189,2.49c-0.148,0.325-1.002-4.765-0.997-4.415c0-0.063-0.01,0.83-0.006,1.08
				c0.017,1.225,0.106,2.252,0.425,3.46c0.704,2.666,1.361-0.554,1.768-1.365c0.65-1.299,1.405-2.55,2.137-3.804
				c2.928-5.016,6.155-9.888,7.174-15.706C81.928,307.44,81.787,306.998,81.857,306.596L81.857,306.596z"/>
		</g>
	</g>
	<g>
		<g>
			<path fill="#231F20" d="M81.857,296.596c-9.935,0.23-19.149,4.258-29,5c-0.041,0.003,0.022,1.248,0,1.25
				c9.852-0.742,19.065-4.77,29-5C81.876,297.846,81.857,296.596,81.857,296.596L81.857,296.596z"/>
		</g>
	</g>
	<g>
		<g>
			<path fill="#231F20" d="M68.357,294.096c-10.12-3.913-20.669-5.845-31.5-4.5c-0.06,0.008,0.042,1.245,0,1.25
				c10.831-1.345,21.38,0.587,31.5,4.5C68.225,295.295,68.505,294.153,68.357,294.096L68.357,294.096z"/>
		</g>
	</g>
	<g>
		<g>
			<path fill="#231F20" d="M70.857,277.096c-0.582-7.678-2.364-15.195-2.497-22.915c-0.001-0.063-0.01,0.83-0.006,1.08
				c0.134,7.771,1.917,15.353,2.503,23.085C70.826,277.933,70.888,277.511,70.857,277.096L70.857,277.096z"/>
		</g>
	</g>
	<g>
		<g>
			<path fill="#231F20" d="M54.357,276.596c-5.215-8.238-1.148-23.054-14.5-23.5c0.004,0-0.023,1.249,0,1.25
				c13.352,0.446,9.285,15.262,14.5,23.5C54.171,277.553,54.548,276.897,54.357,276.596L54.357,276.596z"/>
		</g>
	</g>
	<g>
		<g>
			<path fill="#231F20" d="M57.357,275.346c5.065-10.432-0.791-20.332-8-28.25c0.203,0.224-0.211,1.018,0,1.25
				c6.454,7.088,12.75,15.966,8,25.75C57.191,274.437,57.519,275.013,57.357,275.346L57.357,275.346z"/>
		</g>
	</g>
	<g>
		<g>
			<path fill="#231F20" d="M62.857,249.096c-10.357-6.008-18.443-18.966-32-15.5c-0.109,0.028,0.091,1.227,0,1.25
				c13.557-3.466,21.643,9.492,32,15.5C62.683,250.246,63.045,249.205,62.857,249.096L62.857,249.096z"/>
		</g>
	</g>
	<g>
		<g>
			<path fill="#231F20" d="M43.857,276.096c-4.638-4.56-11.079-10.214-18-10c-0.022,0.001,0.003,1.25,0,1.25
				c6.921-0.214,13.362,5.44,18,10C43.653,277.146,44.07,276.305,43.857,276.096L43.857,276.096z"/>
		</g>
	</g>
	<g>
		<g>
			<path fill="#231F20" d="M47.857,262.596c-4.479-1.115-8.248-3.816-12.5-5.5c0.134,0.053-0.151,1.19,0,1.25
				c4.252,1.684,8.021,4.385,12.5,5.5C47.768,263.823,47.963,262.622,47.857,262.596L47.857,262.596z"/>
		</g>
	</g>
	<g>
		<g>
			<path fill="#231F20" d="M51.357,250.596c-6.577-1.621-12.786-4.407-19.5-5.5c0.057,0.01-0.075,1.238,0,1.25
				c6.714,1.093,12.923,3.879,19.5,5.5C51.269,251.824,51.462,250.622,51.357,250.596L51.357,250.596z"/>
		</g>
	</g>
	<g>
		<g>
			<path fill="#231F20" d="M50.857,290.096c-7.625-2.708-14.726,1.462-18,8.5c-0.161,0.346,0.158,0.911,0,1.25
				c3.274-7.038,10.375-11.208,18-8.5C50.734,291.302,50.997,290.146,50.857,290.096L50.857,290.096z"/>
		</g>
	</g>
	<g>
		<g>
			<path fill="#231F20" d="M54.357,301.096c-2.954,11.042-18.653,14.299-27,20c-0.2,0.137,0.188,1.122,0,1.25
				c8.347-5.701,24.046-8.958,27-20C54.461,301.955,54.253,301.482,54.357,301.096L54.357,301.096z"/>
		</g>
	</g>
	<g>
		<g>
			<path fill="#231F20" d="M52.357,316.096c-1.405,4.231-4.751,6.486-8.202,9.013c-4.033,2.953-6.04,6.26-6.564,11.222
				c-0.55,5.208-0.214,11.041,1.266,16.016c-0.113-0.38,0.115-0.865,0-1.25c-2.021-6.794-2.911-15.95,1.875-21.744
				c3.723-4.507,9.638-6.021,11.625-12.006C52.482,316.968,52.233,316.468,52.357,316.096L52.357,316.096z"/>
		</g>
	</g>
	<g>
		<g>
			<path fill="#231F20" d="M59.857,337.596c-6.262,2.891-6.375,11.255-9.141,16.784c-3.42,6.837-7.32,14.065-14.359,17.716
				c-0.178,0.092,0.163,1.166,0,1.25c6.663-3.455,10.432-10.082,13.759-16.53c2.948-5.714,3.314-15.003,9.741-17.97
				C60.023,338.769,59.706,337.665,59.857,337.596L59.857,337.596z"/>
		</g>
	</g>
	<g>
		<g>
			<path fill="#231F20" d="M55.357,372.096c-2.215,11.743-14.558,17.305-19.5,27.5c-0.165,0.341,0.162,0.917,0,1.25
				c4.942-10.195,17.285-15.757,19.5-27.5C55.433,372.941,55.281,372.496,55.357,372.096L55.357,372.096z"/>
		</g>
	</g>
	<g>
		<g>
			<path fill="#231F20" d="M53.857,397.096c-2.989,5.911-6.362,11.334-10.871,16.213c-3.572,3.864-8.402,7.401-10.629,12.287
				c-0.159,0.349,0.156,0.909,0,1.25c2.208-4.843,7.017-8.515,10.629-12.287c4.574-4.777,7.903-10.344,10.871-16.213
				C54.026,398.011,53.691,397.424,53.857,397.096L53.857,397.096z"/>
		</g>
	</g>
	<g>
		<g>
			<path fill="#231F20" d="M53.357,414.346c2.15,6.054,1.649,12.714,2.319,19.029c0.3,2.83,0.905,5.688,2.681,7.971
				c0.269,0.346,6.088-10.447,6.5-11.5c0.143-0.364-0.14-0.893,0-1.25c-1.425,3.639-3.133,6.99-5.421,10.165
				c-1.546,2.146-1.731,0.642-2.51-1.069c-0.614-1.348-0.838-2.891-1.085-4.336c-1.145-6.711-0.171-13.75-2.484-20.26
				C53.487,413.463,53.225,413.973,53.357,414.346L53.357,414.346z"/>
		</g>
	</g>
	<g>
		<g>
			<path fill="#231F20" d="M65.353,381.778c-0.104,8.968-1.707,17.847-1.732,26.826c-0.007,2.529,0.11,5.042,0.385,7.558
				c0.27,2.467,0.892,4.856,1.767,7.172c0.404,1.068,0.989,2.045,1.584,3.012c0.319,0.518,2.417-2.394,2.5-2.5
				c0.205-0.265-0.198-0.994,0-1.25c-0.903,1.167-1.901,3.474-3.087,1.547c-0.814-1.322-1.309-2.83-1.777-4.299
				c-1.637-5.137-1.463-10.837-1.185-16.132c0.369-7.027,1.471-14.006,1.553-21.049C65.363,382.513,65.358,381.306,65.353,381.778
				L65.353,381.778z"/>
		</g>
	</g>
	<g>
		<g>
			<path fill="#231F20" d="M66.857,356.096c-5.699,3.65-9.903,10.354-9,17.25c-0.053-0.408,0.054-0.84,0-1.25
				c-0.746-5.7,4.566-11.91,9-14.75C67.053,357.221,66.674,356.213,66.857,356.096L66.857,356.096z"/>
		</g>
	</g>
	<g>
		<g>
			<path fill="#231F20" d="M61.857,331.846c11.181,15.331,13.125,33.226,15.5,51.5c-0.026-0.198,0.006-0.425,0.006-0.625
				c0-1.167,0-2.333,0-3.5c0-0.707-0.013-0.707-0.013,0c0,3.029-0.085,2.196-0.422-0.452c-0.345-2.703-0.679-5.406-1.034-8.107
				c-0.615-4.677-1.37-9.327-2.373-13.937c-2.067-9.491-5.941-18.281-11.665-26.129C62.052,330.863,61.655,331.569,61.857,331.846
				L61.857,331.846z"/>
		</g>
	</g>
	<g>
		<g>
			<path fill="#231F20" d="M69.353,308.663c0.094,9.83,1.784,19.201,7.005,27.683c-0.184-0.298,0.188-0.943,0-1.25
				c-5.157-8.377-6.902-17.568-6.996-27.317C69.357,307.306,69.351,308.513,69.353,308.663L69.353,308.663z"/>
		</g>
	</g>
	<g>
		<g>
			<path fill="#231F20" d="M86.855,387.323c0.403,8.691,2.554,17.064,5.613,25.183c1.754,4.653,3.957,9.13,6.371,13.473
				c0.951,1.711,5.119,10.563,6.518,6.367c0.125-0.378-0.125-0.878,0-1.25c-1.365,4.094-4.75-3.374-5.715-4.979
				c-2.262-3.761-4.164-7.729-5.911-11.749c-3.87-8.911-6.421-18.529-6.873-28.25C86.872,386.412,86.838,386.947,86.855,387.323
				L86.855,387.323z"/>
		</g>
	</g>
	<g>
		<g>
			<path fill="#231F20" d="M83.355,402.323c0.254,9.133-1.975,18.13-0.734,27.255c0.143,1.052,1.766,8.121,1.907,4.232
				c0.011-0.306,0.005-0.612,0.003-0.918c-0.029-5.188-2.946-9.459-6.174-13.297c0.201,0.239-0.209,1.001,0,1.25
				c3.203,3.809,5.922,7.837,6.168,12.965c0-0.409,0-0.818,0.001-1.228c-0.386,3.442-0.892-0.273-1.235-1.292
				c-1.172-3.482-1.143-7.801-0.982-11.272c0.177-3.828,0.655-7.643,0.936-11.465c0.182-2.478,0.184-4.955,0.114-7.436
				C83.367,401.413,83.345,401.946,83.355,402.323L83.355,402.323z"/>
		</g>
	</g>
	<g>
		<g>
			<path fill="#231F20" d="M74.855,399.823c0.301,8.91-2.064,17.657-3.999,26.272c-0.089,0.398,0.088,0.855,0,1.25
				c2.136-9.513,4.333-18.933,4.001-28.728C74.869,398.913,74.843,399.446,74.855,399.823L74.855,399.823z"/>
		</g>
	</g>
	<g>
		<g>
			<path fill="#231F20" d="M89.357,381.346c10.244,10.313,8.508,27.886,23.5,34c-0.139-0.056,0.153-1.188,0-1.25
				c-14.992-6.114-13.256-23.687-23.5-34C89.561,380.301,89.145,381.132,89.357,381.346L89.357,381.346z"/>
		</g>
	</g>
	<g>
		<g>
			<path fill="#FFFFFF" d="M166.691,228.389c0.037,0,0.037-5,0-5C166.653,223.389,166.653,228.389,166.691,228.389L166.691,228.389z
				"/>
		</g>
	</g>
</g>
</svg>
